<svg id="Graphics" xmlns="http://www.w3.org/2000/svg" viewBox="0 0 342.53 192.64"><defs><style>.cls-1{fill:#f58c90;}</style></defs><title>bridge2</title><rect class="cls-1" x="260.69" y="129.3" width="7.28" height="28.06"/><rect class="cls-1" x="270.7" y="138.1" width="3.79" height="14.1"/><rect class="cls-1" x="278.58" y="136.12" width="7.13" height="25.02"/><rect class="cls-1" x="292.38" y="136.58" width="4.25" height="22.75"/><rect class="cls-1" x="301.63" y="144.01" width="9.25" height="8.64"/><rect class="cls-1" x="309.37" y="129.75" width="5.76" height="27.75"/><rect class="cls-1" x="303.15" y="140.67" width="3.03" height="7.73"/><rect class="cls-1" x="290.56" y="134.15" width="3.64" height="22.6"/><rect class="cls-1" x="279.49" y="134.15" width="5.01" height="5"/><rect class="cls-1" x="273.88" y="147.65" width="4.85" height="5.91"/><rect class="cls-1" x="284.95" y="151.44" width="3.03" height="5.76"/><rect class="cls-1" x="312.4" y="145.37" width="7.58" height="9.86"/><rect class="cls-1" x="317.1" y="151.29" width="11.98" height="10.62"/><rect class="cls-1" x="264.78" y="144.77" width="7.13" height="12.74"/><rect class="cls-1" x="255.07" y="150.23" width="7.28" height="8.64"/><rect class="cls-1" x="255.68" y="141.13" width="3.64" height="15.01"/><rect class="cls-1" x="239" y="152.65" width="6.97" height="7.58"/><rect class="cls-1" x="234.6" y="142.34" width="4.25" height="17.59"/><rect class="cls-1" x="228.54" y="147.8" width="3.94" height="7.73"/><rect class="cls-1" x="218.83" y="142.04" width="8.49" height="12.59"/><rect class="cls-1" x="214.28" y="137.49" width="5.46" height="18.81"/><rect class="cls-1" x="207.15" y="134.46" width="4.4" height="27.75"/><rect class="cls-1" x="203.21" y="148.71" width="5.31" height="13.95"/><rect class="cls-1" x="187.29" y="153.72" width="4.7" height="8.04"/><rect class="cls-1" x="193.2" y="154.63" width="11.07" height="6.98"/><rect class="cls-1" x="183.8" y="136.73" width="3.64" height="23.96"/><rect class="cls-1" x="176.82" y="154.47" width="7.28" height="7.58"/><rect class="cls-1" x="167.27" y="139.61" width="4.4" height="24.87"/><rect class="cls-1" x="161.81" y="135.52" width="7.13" height="27.15"/><rect class="cls-1" x="155.74" y="145.83" width="4.09" height="11.68"/><rect class="cls-1" x="149.67" y="139.76" width="4.55" height="19.87"/><rect class="cls-1" x="152.86" y="151.74" width="4.1" height="6.52"/><polygon class="cls-1" points="314.19 130.64 311.14 119.29 310.27 130.49 314.19 130.64"/><polygon class="cls-1" points="293.24 134.71 292.22 132.09 291.35 135 293.24 134.71"/><polygon class="cls-1" points="270.4 145.77 270.4 125.11 272.58 130.2 272.58 134.28 275.05 137.77 275.05 148.39 270.4 145.77"/><polygon class="cls-1" points="223.1 143.01 221.5 135.88 219.9 144.03 223.1 143.01"/><polygon class="cls-1" points="229.07 154.06 229.07 142.72 231.55 148.39 229.07 154.06"/><polygon class="cls-1" points="184.84 137.77 185.71 129.47 186.73 138.35 184.84 137.77"/><rect class="cls-1" x="207.83" y="133.69" width="2.62" height="2.62"/><rect class="cls-1" x="208.85" y="132.68" width="0.58" height="1.89"/><rect class="cls-1" x="163.01" y="134.42" width="4.07" height="2.33"/><rect class="cls-1" x="164.9" y="131.51" width="1.17" height="4.51"/><rect class="cls-1" x="157.04" y="144.61" width="1.75" height="2.04"/><rect class="cls-1" x="158.06" y="152.17" width="2.62" height="5.68"/><rect class="cls-1" x="141.33" y="153.63" width="5.68" height="5.82"/><rect class="cls-1" x="280.44" y="133.4" width="3.2" height="1.6"/><rect class="cls-1" x="282.62" y="143.01" width="4.07" height="11.49"/><rect class="cls-1" x="265.01" y="125.25" width="1.89" height="7.42"/><rect class="cls-1" x="261.67" y="123.8" width="1.75" height="8.15"/><rect class="cls-1" x="264.43" y="121.91" width="1.16" height="10.04"/><polygon class="cls-1" points="200.57 169.12 324.63 170.22 243.82 170.88 273.69 172.85 206.5 173.51 237.9 171.1 177.07 169.12 200.57 169.12"/><polygon class="cls-1" points="132.5 170.66 195.74 171.98 120.86 171.32 132.5 170.66"/><polygon class="cls-1" points="109.23 175.93 147.43 176.81 134.69 174.61 176.85 174.39 129.65 173.29 132.28 175.27 109.23 175.93"/><polygon class="cls-1" points="239.87 177.69 154.9 178.56 212.42 180.1 239.87 177.69"/><polygon class="cls-1" points="289.06 177.03 247.12 176.37 263.58 178.56 289.06 177.03"/><polygon class="cls-1" points="227.13 187.34 138.87 185.15 137.99 187.13 227.13 187.34"/><path class="cls-1" d="M145,188.64L134.2,184l-7.69,3.84L118.06,186a20,20,0,0,0-4.61-6.15c-3.07-2.69-10.38-1.15-10.38-1.15l-0.43-.33L142,174.9l0.09-3.06,12.5-.09-0.2,2.4,67.79-1.23-0.1-1.68,120.42,0.58L317.17,160l-15-7.77L287.66,161l-6.21-4.14-4.14-2.07-13.46,3.1-4,.95c-1-1-2.11-2.15-3.38-3.37,0.06-.14.1-0.24,0.11-0.27a3.27,3.27,0,0,0,.63.81c1.45,1.26,2.75,1.74,3.88,1.44a3.65,3.65,0,0,0,2.18-2.26l-0.35-.12a3.33,3.33,0,0,1-1.93,2c-1,.27-2.19-0.18-3.54-1.36-3.16-2.75-6.16-26.82-7.45-38.51l-0.22-8.87-0.29-.52-0.17-1.21-0.52.23-0.06.75-0.58,1H246l-0.17-.52h-0.52l-0.23.58H242.9l-0.69-.35L242,107h-0.35l-0.12.86-0.4.29v4.29A113.49,113.49,0,0,1,234.74,130l-0.05.09h0c-0.27.54-.54,1.07-0.81,1.58v-0.1l-0.21.38V132c-0.27.48-.54,0.93-0.8,1.36v-0.08l-0.22.36v0.06l-0.2.31a40.56,40.56,0,0,1-2.63-4.64v-0.23l-0.23-.54v0.3c-0.26-.53-0.52-1.09-0.78-1.66v-0.45l-0.24-.56v0.48q-0.38-.85-0.77-1.77v-0.51l-0.25-.58v0.51q-0.38-.91-0.77-1.87v-0.43l-0.25-.59v0.4q-0.37-1-.76-2v-0.23l-0.26-.61v0.16q-3.76-10-8.28-25.15c-7.36-24.53-17.72-69.06-20-78.85l-0.13-5.44-0.76-1.38-0.46-3.21-1.37.61-0.15,2-1.53,2.6H187L186.56,9h-1.38l-0.61,1.53h-5.66l-1.84-.92-0.61-3.52h-0.92l-0.31,2.29-1.07.77v1.21l-0.16-.1c-0.15.23-14.86,22.93-34,40.71a170.34,170.34,0,0,1-32.86,24l-7.58-2.67-17.2-7.74-0.53-.22-0.39-10-2.6-2.14-1.07-4.9L74.86,45l-2.75.15L69.2,48l-2.14.15-0.72,9.73L0,30.43V72.31l0.34-.24,0.41,0.08v0.77L0,72.33v1.33l0.74,0.59V81.4L0,81.84V83l0.74-.44V87H0v1H0.74v2.07H0v1H0.48L0,91.65V93.1l0.74-.72V97L0,96.42v1.3l0.74,0.56v5.13L0,102.85v1.31l0.43,0.33-0.35.31H0v93.08H163.41a70,70,0,0,0-8.45-6.15c-3.46-1.92-5.77,1.92-9.22,3.08S145,188.64,145,188.64ZM51.63,118.07l0.73,0.48-0.73.26v-0.74ZM47.14,106l2.42,2-2.42,1.74V106Zm0-12,0.27-.23L48,94.32l-0.82-.27V94Zm0-2.5,1.29,0.08-0.94.77L47.14,92V91.48Zm-6.41,28.58,1-.93,3.37,2-2.8,1c-0.52-.06-1.06-0.11-1.6-0.15v-1.92Zm0-1.55,0.09,0.05-0.09.08v-0.14Zm0-7.65,2.55,1.69-2.55,1.83v-3.51Zm0-10.23,4.37,3.66-4.37,1.51v-5.17Zm0-7.55L45,94.44l-4.22,3.48V93.07ZM9.49,104.87l1.46,1.1c-0.46-.13-1-0.24-1.46-0.35v-0.75Zm0-23.67,0.71,0.56-0.71.68V81.2ZM2.23,99.41L4.4,101l-2.16,1.88V99.41Zm0-11.34H3.69L2.23,89.48V88.07Zm0-12.63,3.66,2.91L2.23,80.52V75.44ZM8,77.1l-1.15.68L2.23,74.11V72.44l1.32,0.25L8,74.39v2.7Zm0,1.59-0.28-.22L8,78.31v0.38Zm0,5.2L4.76,87H2.23v-5.3L6.77,79,8,80v3.87ZM8,87H6.25L8,85.34V87Zm0,3.11H3l2.13-2.07H8v2.07Zm0,7.77-2.8,2.43-3-2.24V91.18H8v6.73Zm0,4.54L6,101l2-1.7v3.16Zm0,2.91a52,52,0,0,0-5.34-.5l-0.43-.32V104.3l3-2.62L8,103.75v1.61Zm2.77-29.9-1.29.76V75Zm2,3.84L10.94,81,9.49,79.87V77.43L12,75.93l0.72,0.28V79.3Zm0,3.15-1-.77,1-.94v1.7Zm0,4.58H9.49V83.89L11,82.41l1.72,1.37V87Zm0,3.11H9.49V88.07h3.25v2.07Zm0,3.66L9.49,96.62V91.18h3.25V93.8Zm0,12.22-3.25-2.44V98l3.25-2.82V106ZM44,90.24L40.73,90V88.91h2Zm1.64,0.11h-0.1l-1.38-1.43h1.48v1.44Zm0,3.23L40.73,92V91.07l4.35,0.28,0.57,0.59v1.64Zm0,4.48-3.55.09,3.55-2.93v2.84Zm0,5.35-4.92-4.13,0.07-.06,4.85-.12v4.31Zm0,7.44-1.47,1.05-3.45-2.28V106.9l4.92-1.7v5.64Zm0,2-0.54-.36,0.54-.39v0.75Zm0,1.3-4,3.67-0.9-.53v-1.65l3.48-2.49,1.45,1v0.05Zm0,6.06-3.09-1.84,3.09-2.82v4.66Zm0,2.41-1.11-.2,1.11-.4v0.6Zm4.49-32.5-0.54.45-2.46-.16V89.19l1.24,1.24,1.76-.7v0.41Zm0,4.88-0.07,0-1.86-1.92,1.73-1.43h0.2V95Zm0,2.91-3,.08V95.15l2.37,0.77,0.63,0.66v1.36Zm0,4.62-3,1V99.05l3-.08v3.58Zm0,4.61-3-2.49,3-1v3.51Zm0,2.92-3,2.74v-1.76l3-2.16v1.18Zm0,5.76L47.38,114l2.77-2.52v4.35Zm0,3.5-3,1.07V115.1l3,2v2.26Zm0,3.57-2.58-1.54,2.58-.92v2.46Zm0,3c-1.27-1.11-2.54-2.34-3-2.8v-0.78l3,1.79v1.79Zm4.05-35-2.57-.16V90.27l2.57-2.12v2.74Zm0,5.45-2.57-.83V91.77l2.57,0.16v4.41Zm0,1.49-1.36,0-1.21-1.25h0l2.57,0.83v0.39Zm0,1.43-0.37-.38H54.2v0.39Zm0,1.89-2.57.88v-3.1l0.78,0,1.79,1.84v0.39Zm0,3.55-2.57,1.84v-3.41l2.57-.88v2.45Zm0,1.68-2.38,2.17-0.18-.15v-0.58L54.2,106v0.4Zm0,4.17-1.58-1.33,1.58-1.44v2.77Zm0,7.33-0.61.22-2-1.29v-6.69l0.21-.19,2.36,2v6Zm0,7.43-2.57-1.53v-3.88l1.82-.65,0.75,0.5v5.55Zm0,2.63-1.1,0a3.52,3.52,0,0,1-1.47-.8V125l2.57,1.53V128ZM251.93,151.3l-0.47-.42V132.28c0.15,1.07.31,2.15,0.47,3.23V151.3Zm0.6-12h-0.06v12.47l-0.47-.42V136C252.17,137.12,252.35,138.23,252.53,139.32Zm0.49,13-0.47-.43V139.43c0.15,0.92.31,1.84,0.47,2.73v10.13Zm1.71-2.12a21.86,21.86,0,0,0,1.82,5.05l-0.34-.11,0,0.12-1.43-1.36v-3.7Zm-0.54-2.22c0.15,0.68.31,1.33,0.47,1.94v3.92l-0.47-.44v-5.42Zm-0.54-2.54q0.27,1.32.54,2.52H254.1v5.36l-0.47-.44V145.4Zm-0.07,7.38-0.47-.43v-9.79q0.23,1.27.47,2.47v7.75ZM251,158.3l2.26,1.69H251Zm-0.07-30c0.15,1.15.31,2.31,0.47,3.49v19.06l-0.47-.42V128.26Zm-0.83-6.72c0.23,1.92.48,4,.76,6.15v22.63l-0.05-.05Zm-1.52-8c-0.25,1-.53,2.18-0.84,3.38l-4.46.1c-0.26-2.34-.44-4.16-0.54-5.18l0.35-.53,4.9,0.12,0.58,0.63v1.47Zm-5.16,23v-4.94c0.16-.37.32-0.75,0.47-1.13v6.06H243.4Zm0.07,3.23h0.4v4.74l-0.47-.38v-4.28Zm-0.07-9.38v-1.45l0,0,0.58,0C243.8,129.4,243.6,129.89,243.4,130.38Zm1.09,6.12v-6.27q0.23,1.68.47,3.36v2.9h-0.47Zm0.47,3.22v5.64l-0.47-.38v-5.25H245Zm-0.27-10.87H245v2C244.87,130.17,244.77,129.5,244.69,128.85Zm-0.41-3.21c-0.26-2.1-.5-4.1-0.71-5.91l3.43-.12c-0.55,2-1.17,4-1.83,6Zm3.95-5.88v5.56l-0.14.14-0.33,0v-5.89H248Zm-0.15-2.93,0.15-.6v0.46ZM248.22,129v7.37l0,0h-0.45v-7.73h0.1Zm0,10.72v8.31l-0.41-.35-0.06-.29v-7.77H248Zm-0.14,16.62h-3.87l1.53-1.8,2.34,1.64v0.16Zm-0.41-27.68v7.73h-0.47v-7.72Zm-0.47-3.2v-5.35l0.15-.56h0.32v5.89Zm0.47,14.16v7.43q-0.24-1.1-.47-2.28v-5.14h0.47Zm-0.33,7.68-0.14-.12v-0.55Zm-0.22-18.61v7.72h-0.47v-7.7Zm-0.47-3.2V122.1q0.24-.85.47-1.68v5.08Zm0.47,14.14v4.76c-0.16-.82-0.32-1.66-0.47-2.53v-2.22h0.47Zm0,6.64v0.84l-0.47-.39V144C246.82,144.78,247,145.56,247.13,146.31Zm-0.54-17.56v7.7h-0.47v-7.69Zm-0.47-3.2V124h0q0.25-.81.48-1.61v3.17Zm0.47,14.13v1.79c-0.1-.59-0.21-1.18-0.31-1.79h0.31Zm0,3.91v3.11l-0.47-.39V141C246.27,141.87,246.43,142.75,246.59,143.59ZM246,128.78v7.69h-0.27c-0.07-.44-0.13-0.88-0.2-1.32V128.8Zm-0.43-3.21q0.22-.69.43-1.38v1.36Zm0.43,15v5.7l-0.47-.39v-6.16h0.32C245.95,140,246,140.27,246,140.55Zm-1-4.06V134.1c0.12,0.8.23,1.59,0.35,2.39H245Zm0.47,3.22v6.09l-0.47-.38v-5.7h0.47ZM245,131.37v-2.54l0.47,0v5.84C245.34,133.55,245.18,132.46,245,131.37Zm-0.62,13.55-0.47-.38v-4.8h0.47v5.19Zm-0.47-8.41v-6.25c0.14-.34.27-0.68,0.41-1,0,0.15,0,.31.06,0.46v6.81h-0.47Zm-0.54-10.83V121.6c0.15,1.29.31,2.65,0.49,4.06Zm5.19-9.33-0.29.27v-0.7l0.28-1.16Zm0.08,8.52-0.38.38v-5.43l0.33,0.24Zm0.11,11.1-0.49.37V129.1l0.42,0.4Zm0.12,12.68-0.61-.52V139.8l0.52,0.3Zm-2.22,11.46L248.5,158l0.49,0,0,2.05Zm-0.54-.52-2-2.13v-0.34h4v0.18ZM243.35,158h0.19l2.1,2.2-2.25.1Zm-0.08-5.08,1.86,1.26-1.36,1.59h-0.46Zm-0.21-12.74,0.26-.24v4.15l-0.2-.16Zm-0.12-7.5c0.13-.28.25-0.59,0.38-0.88v4.77h0l-0.3-.3Zm-0.05-3.15,0.43-.47v1.54c-0.13.32-.27,0.64-0.4,1Zm-0.15-9.41,0.27-.33h0.17l0.21,1.84h-0.07v4.11h0l-0.48-.4Zm-0.08-5.18,0.22,2.07-0.19-.17ZM201,89.67l-0.61-1.72V32.64L201,35.19V89.67Zm0,29-0.61-.29V90.93L201,92.61v26.06Zm1-26.18-0.62-1.69V36.88L202,39.43V92.49Zm0,26.66-0.62-.29V93.71l0.18,0.49L202,95.36v23.79Zm1-23.91-0.52-1.39-0.1-.28V41.09l0.62,2.56v51.6Zm0,24.39-0.62-.29V96.42l0.62,1.63v21.58Zm1-21.69-0.63-1.65v-51l0.63,2.56V97.94Zm0,22.18-0.63-.3V99.08l0.63,1.6v19.43Zm1-19.53L204.47,99V49.4L205.11,52v48.62Zm0,20-0.63-.3V101.67l0.63,1.58V120.6Zm1-17.42-0.64-1.61V53.5l0.64,2.57v47.11Zm0,17.91-0.64-.31V104.2l0.64,1.56v15.33Zm1-15.37-0.65-1.59V57.57l0.65,2.57v45.58Zm0,15.87-0.65-.31V106.66l0.65,1.54v13.38Zm1-13.39-0.65-1.57v-45l0.65,2.56v44Zm0,13.88-0.65-.32V109.07l0.65,1.51v11.5Zm1-11.46-0.66-1.55V65.58l0.66,2.55v42.48Zm0,12-0.66-.32V111.4l0.66,1.48v9.69Zm1-9.61-0.66-1.53V69.51l0.66,2.55V113Zm0,10.11-0.66-.33v-9.08l0.66,1.45v8Zm1-7.83-0.67-1.49V73.39l0.67,2.54v39.31Zm0,8.34-0.67-.34v-7.39l0.67,1.41v6.32Zm1-6.14L211.57,116V77.22l0.68,2.52v37.72Zm0,6.65-0.68-.34V118l0.68,1.37v4.75Zm1-4.52-0.68-1.42V81l0.68,2.49v36.11Zm0,5-0.68-.35V120l0.68,1.33v3.26Zm1-3-0.69-1.38V84.68l0.69,2.46v34.51Zm0,3.52-0.69-.36V122l0.69,1.29v1.87Zm1-1.54-0.69-1.34v-34l0.69,2.42v32.91Zm0,2.08-0.69-.37v-1.45l0.69,1.24v0.57Zm1-.21-0.7-1.28V91.81l0.7,2.37V125.5Zm-0.55.46-0.15-.08V125.7Zm1.57,0.85-0.42-.23-0.29-.52V95.22l0.71,2.32v29.26Zm1,0.57-0.71-.4V98.55l0.71,2.29v26.54Zm1,0.57-0.72-.4V101.8l0.72,2.25V128Zm1,0.57-0.72-.41V105l0.72,2.21v21.34Zm1,0.59-0.73-.43V108l0.73,2.17v18.9Zm1,0.61-0.74-.44V111l0.74,2.12v16.57Zm1,0.6-0.74-.44v-16c0.25,0.7.5,1.39,0.74,2.05v14.34Zm1,0.61-0.75-.45V116.72c0.25,0.68.5,1.34,0.75,2v12.23Zm1,0.64-0.76-.47V119.39c0.25,0.65.51,1.3,0.76,1.92v10.27Zm1,0.64-0.76-.48v-9.79l0.76,1.83v8.44Zm1,0.64-0.77-.48v-8c0.26,0.6.51,1.18,0.77,1.74v6.75Zm1,0.65-0.77-.5v-6.36c0.26,0.57.52,1.11,0.77,1.63v5.22Zm1,0.67-0.78-.51v-4.89c0.26,0.53.52,1,.78,1.53v3.87Zm1,0.67-0.79-.52v-3.59q0.4,0.73.79,1.4v2.71Zm1,0.34-0.17.22-0.62-.41v-2.47c0.27,0.45.53,0.86,0.79,1.26v1.4Zm0.51-.66c-0.09.13-.19,0.24-0.28,0.37V134.1Zm0.51,1.69-0.71-.49c0.19-.23.37-0.46,0.56-0.71l0.15,0.19v1Zm1-.53c-0.27-.31-0.53-0.65-0.8-1v-0.18c0.27-.4.54-0.82,0.8-1.26v2.46Zm0,1.24-0.8-.55v-0.89q0.41,0.51.8,0.94v0.5Zm1-.17a10.52,10.52,0,0,1-.81-0.83v-3.06c0.27-.47.55-1,0.81-1.47v5.36Zm0,0.88-0.81-.56v-0.42a10.15,10.15,0,0,0,.81.75v0.23Zm1-.11a6,6,0,0,1-.82-0.58V131c0.28-.55.55-1.13,0.82-1.71v8.24Zm0,0.83-0.82-.58v-0.22a6.16,6.16,0,0,0,.82.53v0.26Zm1-.4a3.76,3.76,0,0,1-.82-0.33v-8.78c0.28-.63.56-1.27,0.82-1.92v11Zm0,1.12-0.82-.58v-0.3a4,4,0,0,0,.82.31v0.58Zm1-1a2.76,2.76,0,0,1-.83,0V126.43c0.29-.71.56-1.43,0.83-2.15V138Zm0,1.79-0.83-.61v-0.67a3,3,0,0,0,.83,0v1.24Zm3.36-4.77-0.13.2V115.61l-0.17.49V135.5a11.19,11.19,0,0,1-.85,1.13V118.46l-0.17.45v17.92a5.08,5.08,0,0,1-.84.75V121l-0.18.43v16.22a2.5,2.5,0,0,1-.62.28l-0.21,0V123.77c1.37-3.78,2.46-7.53,3.17-10.13V135Zm-2.82,3.45a2.66,2.66,0,0,0,.49-0.19v2.26l-0.84-.61v-1.4A2.93,2.93,0,0,0,238.28,138.5Zm1.51-.93v3.76l-0.84-.64v-2.48A4.58,4.58,0,0,0,239.79,137.57Zm1-1.18v5.71l-0.85-.64V137.4A9.26,9.26,0,0,0,240.81,136.39Zm0.3,5.93-0.13-.1v-6.07l0.13-.18v6.34Zm-41-10c7.78,2.62,14.53,5.07,19.05,7a155.16,155.16,0,0,1,22,12.06v8.9l-3.14.14-14.49-6.21s-1.55-5.18-3.11-3.62-13.46,16-13.46,16l-3.32-.74-0.05-1.77L202,163.13l-1.22-2.6Zm-0.7-44.29,0.6,1.71v28.41l-0.25-.12-0.35-14.44V88.07Zm0-59.7,0.6,2.54V86.78L199.4,85V28.37Zm-2-8.71c0.45,1.94,1,4.29,1.63,6.94V83.83l-0.07-.2Zm-6.77,12.83-1.59,0V21.81l1.59-2.5V32.49Zm0,22.71-0.83,0L189,52.76V39.61l1.59-.06V55.2Zm0,29-1.59,0V63.83l1.59-.08V84.23Zm0,29.55L189,113V92.83l1.59,0v21Zm2-81.52-0.21.19-1.39,0V18.67l0.48-.77,0.91,0,0.21,0.23V32.26Zm0,22.84-1.6.08V39.54l1.39,0,0.21,0.15V55.1Zm0,9.19-0.06-.2,0.06,0.06v0.14Zm0,19.89-1.6,0V63.72l0.37,0,1.23,3.87v16.6Zm0,30.53L191,114V92.78l1.54,0,0.05,0v21.94ZM194,30.94l-1,1V18.58l0.93,1Zm0.22,22.6L193,54.8V39.93l1.14,0.83ZM194.39,70c-0.47-1.48-.95-3-1.42-4.46v-1l1.38,1.3Zm0.13,13L193,84.17h0V68.81c0.48,1.51,1,3,1.46,4.51Zm0.32,32.78-1.87-.87V93l1.66,0.95ZM195,135l-0.85,0-5.29-5.54,0.55-.64,5.55,1.8Zm-6.45-95.38V51.43q-0.81-2.63-1.58-5.19V39.68Zm-1.58-7V24.86l1.58-2.42V32.54Zm1.58,22.25v0.47l-1.58.08v-5.7Q187.78,52.22,188.58,54.82Zm0,9V84.27l-1.58,0V63.93Zm0,29v20l-1.58-.73V92.88Zm4.1,43.51v0.76H182.42L187.6,131Zm-6.1-96.66v5.16L185,39.74ZM185,32.62V27.84l1.57-2.34v7.09Zm1.57,15.66v7.11l-1.57.07V43.09Zm0,15.67V84.32l-1.57,0V64Zm0,28.94v19L185,111.2V92.93Zm0.93,52.76L182.12,140v-0.9h10.56v0.48Zm0.08,3,5.51,5.78H182.68Zm7.61,3.79H194l-5.07-5.32,4.89-5.74,1.31-.05Zm-14.82,5.36H182v-1.38h11.48v1.38h1.81l0,2.6-1.22,2.45-3.66.76-1.31-.19-1.76-1.17-2,.61h0l-1.71-.25-2.27.85L180.44,161Zm-0.27-16.43,0.51,0,5.58,5.85-4.59,5.39H180.3Zm-0.25-15.51,4,1.24,2.38,2.5-5,5.85H180Zm4.71-84.18V55.49l-1.56.08V39.82l1,0Zm-1.56-9V30.75c0.54-.77,1.05-1.53,1.56-2.27v4.15Zm1.56,31.39V84.37l-1.56,0V64.14Zm0,28.89V111l-1.56-.72V93Zm-2-53.11V55.58l-1.55.08V39.88Zm0-8.43v0Zm-0.91,1.3,0.18-.25,0.07,0.25h-0.25ZM181,31V29.7l0.27,0.92Zm1.55,33.15V84.41l-1.55,0V64.24Zm0,28.83v17.08l-1.55-.72V93Zm-3.23,1.06,1.09-1h0.14v16.11l-1-.46ZM179,65.63l1.24-1.35,0.3,0v20.2H180l-0.79-.79L179,74.8V65.63Zm0-25.47,0.17-.21,1.37,0V55.68l-0.6,0L179,54.93V40.16Zm0-17.28c0.47,1.61,1,3.38,1.54,5.29v3.48l-0.77,1.09-0.75,0,0,0V22.88Zm-0.24-4.42,0.57-.85,10.37,0.25c-2,3.13-4.57,7.18-7.71,11.71C180.73,25.13,179.62,21.33,178.8,18.46Zm-0.31,22.36,0.09-.11v5.8Zm-0.34-21,0.43,1.5v11l-0.23-.21Zm-78,131.75,0.14-.08,0,0.09h-0.16Zm-0.79-8.12,0.75-2.51,3.12,1.89-2.09,6.27C100.57,147.21,100,145.32,99.37,143.43Zm-1.86,6.23,1.1-3.67c0.48,1.52.95,3,1.4,4.53l-1,.61Zm1.33-7.85-0.36-1.11,0.63-.38,0.15,0.09Zm-0.67-2v0h0ZM97,141.61l0.19-.11c0.31,0.95.62,1.9,0.92,2.85L97,148.09v-6.48Zm0-6.77,2.2-5.08,2.84,1.41-2.28,7.64-0.62.37-1.42-.86L97,136.16v-1.31Zm6.25-11-2.3,1.86,1.64-3.78ZM103,118.57l0-.07,0,0Zm0.6,6.26,0.19,0.54-1.45,4.85-2.74-1.36,0.54-1.24ZM97,130.16l1.14-.92,0.19,0.1L97,132.41v-2.26Zm0-1.48,0.19,0.09-0.19.15v-0.24Zm-8.29,18,2.9-1.75-1.6,3.7-1.3-.06v-1.89Zm0-2.9,3-7.89,3,1.81-2.46,5.7-3.56,2.15v-1.77Zm5.44-11.27c0.41,1.19.83,2.41,1.25,3.66l-0.28.64-3-1.83,0.46-1.19ZM94,127.41l-0.1-.28L94,127.22Zm-0.71,4.52,0.37-1,0.18,0.52Zm-4.56,4.92,2-1.64,0.18,0.11L88.68,141v-4.19Zm0-2.86,1.15,0.69-1.15.93V134Zm-1,2.4L85,138.57c0.63-1.46,1.44-3.31,2.37-5.34l0.31,0.19v3Zm0,7.15-1.28,3.31-1.61,1-1.25-.48V142l0.64-1.54,3.49-2.82v5.91Zm0,4.92-0.85,0,0.35-.92,0.49-.3v1.26Zm3.74-23.6h0v0Zm0.47,1.31,1.19,3.39-1.38,3.58-1.11.89-1.95-1.18v-2.39c0.73-1.55,1.51-3.15,2.32-4.75ZM96,122.09l-1.63,4.22-1-.49-1-2.78c1.19-2.23,2.41-4.38,3.61-6.26v5.3Zm0,5-0.76-.38,0.76-2v2.35Zm0,2.58-1,.79-0.59-1.67,0.45-1.17L96,128.2v1.5Zm0,3.62-0.64-1.86,0.64-.52v2.38Zm0,7.75-2.34,1.41,1.87-4.33L96,138.43v2.64Zm0,7.78-5-.23L93,144l3-1.81v6.66Zm1.43-34.17,1.13,0.79L97,119.59v-4.25Zm2-1.49-0.52,1.35L98,113.91c0.4-.52.79-1,1.17-1.42Zm1.38,3.84,1.26,3.56L99.3,127,98,128.1l-1-.5v-5.33L99.38,116Zm-0.56-1.57-0.53-.37,0.2-.53Zm4.38-.78-1.27,2.94-1-.69c-0.58-1.63-1.13-3.14-1.62-4.49l0.73-1.9,0.14-.08a5.84,5.84,0,0,1,3-.5v4.72Zm0,3.82-0.46-.32,0.46-1.07v1.39Zm0,3.86-0.14.46,0,0-1-2.95,0.35-.81,0.85,0.59v2.68Zm0,9-1.46-.72,1.11-3.71,0.36,1.05v3.38Zm0,4.46L101,138.07l1.93-6.46,1.75,0.86v3.38Zm0,2.75-1.09,3.27L100.4,140l0.15-.52,4.08-2.47v1.63Zm0,3.93-0.24-.15,0.24-.73v0.88Zm0,5.23-2.54,1.5,2-5.95,0.56,0.34v4.11Zm0,13.84c-0.3-1.23-.63-2.5-1-3.8l1-.46v4.27Zm3.12-48.18-0.69-1.92,0.3-.69,0.11,0.06Zm0.76-1.93a15.85,15.85,0,0,1,2,1.6V118l-0.89.72-0.46-1.32Zm0,9.3,0.05,0.48-0.34-.24ZM109.41,154l1.1-4.45v3.93Zm1.1,0.55v3.09l-1.83-.7,0.43-1.73Zm-2.08-19.89,0.3-.18,1.37,0.68,0.4,3.7v2.4C109.85,139.09,109.15,136.88,108.44,134.68ZM110.35,146l-0.41-.25,0.28-.17ZM110,119.66l0.55-.45V121l0,0.14ZM110,134l-0.27-.13,0.24-.14Zm0.52-8.12v4L110,125.47l0.16-.48ZM107.89,133l-0.18-.55,1.59-4.78,0.54,5-1.15.7ZM136.58,78.2l-1.33,1v-22l1.33-1.14V78.2Zm0,10.86-1.33-.6V81l1.33-1v9Zm2-12.37-1.34,1V55.5l1.34-1.18V76.69Zm0,13.28-1.34-.61V79.57l1.34-1V90Zm2-14.84-1.35,1.06V53.74l1.35-1.23V75.13Zm0,15.75-1.35-.61V78.07l1.35-1V90.88Zm2-17.36-1.36,1.1V51.91l1.36-1.28V73.52Zm0,18.26-1.36-.62V76.51l1.36-1.08V91.78Zm2-19.92L143.21,73V50l1.37-1.33V71.86Zm0,20.83-1.37-.62V74.92l1.37-1.12v18.9Zm2-22.54-1.38,1.18V48.07l1.38-1.39V70.16Zm0,23.45L145.2,93V73.28l1.38-1.17V93.6Zm2-25.2-1.39,1.22V46.06l1.39-1.44V68.4Zm0,26.11-1.39-.63V71.59l1.39-1.21V94.51Zm2-27.92-1.4,1.27V44l1.4-1.49v24.1Zm0,28.83-1.4-.64V69.85l1.4-1.26V95.42Zm2-30.7L151.17,66V41.85l1.41-1.55V64.72Zm0,31.61-1.41-.64V68.06l1.41-1.3V96.33Zm2-33.54-1.42,1.37V39.66l1.42-1.6V62.8Zm0,34.45-1.42-.65V66.21l1.42-1.35V97.24Zm2-36.43-1.43,1.42V37.4l1.43-1.65V60.81Zm0,37.35-1.43-.65V64.31l1.43-1.4V98.16Zm2-39.39-1.44,1.48V35.09l1.44-1.7V58.76Zm0,40.3-1.44-.65V62.35l1.44-1.45V99.07Zm2-42.42-1,1.1-0.42.44V32.72L160.58,31V56.65Zm0,43.33-1.45-.66v-39l1.45-1.5V100Zm2-45.52-1.45,1.6V30.29l1.45-1.82v26Zm0,46.43-1.45-.66v-42c0.49-.52,1-1.05,1.45-1.58V100.9Zm2-48.69-1.46,1.66V27.79l1.46-1.87V52.21Zm0,49.6-1.46-.67V56.07c0.49-.54,1-1.07,1.46-1.62v47.36Zm2-51.93-1.47,1.73V25.24l1.47-1.93V49.88Zm0,52.85-1.47-.67V53.85l1.47-1.7v50.57Zm2-55.25-1.48,1.79V22.62l1.48-2V47.48Zm0,56.16L167.1,103V51.56l1.48-1.76v53.85Zm2-58.63-1.49,1.85V19.94l1.49-2.06V45Zm0,59.55-1.49-.68V49.18c0.5-.6,1-1.2,1.49-1.81v57.18Zm2-62.08-1.5,1.91V17.19l1.5-2.13V42.48Zm0,63-1.5-.69v-58c0.51-.64,1-1.27,1.5-1.9v60.61Zm1.58-65.05-1.1,1.42V14.35l1.1-1.6V40.42Zm0,65.78-1.1-.5V44.25l1.1-1.39V106.2Zm-40.28,6c5.93,1.69,22.7,6.49,40.28,11.88v39.67l-1.07.46-0.58,1.61-8.56.39L158.77,159l-7.25,2.59-8.28,1.55L135,161.23Zm-0.63-29.75,1.32-.93v6.65l-1.25-.57-0.07-3V82.44Zm0-23.55,1.32-1.1V79.68l-1.32.95V58.89Zm-2,1.62,1.31-1.06V79.58l-0.8-.62-0.51-2.48v-16Zm-2,1.57,1.3-1V73.11l0-.12-1.28-.1V62.08Zm-2,1.52,1.29-1V72.83l-1.29-.1V63.6Zm-2,1.48,1.28-.95v9l-0.77,2-0.51,0V65.08Zm-2,1.44,1.27-.91v9.61l-1.22.08-0.06,2V66.52Zm-2,1.4,1.26-.88V80.42L121.32,80V67.91Zm-2,1.35,1.25-.85v11.3l-1.25-.44v-10Zm-2,1.32,1.24-.82V79l-1.24-.44v-8Zm-2,1.28,1.23-.79v7.24l-1.23-.43v-6Zm-0.77,5.75-1.23-.43V73.09l1.23-.76v5.27Zm-1,52.83c-0.65-2-1.31-4-2-5.88l2.54,1.77v3.77Zm0.59,0.77v1l-0.28-.88Zm-2,14-0.08-.71,2.09-1.24v5.08l-1.94-1.18c-0.18-.63-0.36-1.26-0.54-1.9Zm1.4,6.87q-0.45-1.73-.95-3.56l1.56,0.95v2.33Zm0.61,0.78v1.71c-0.12-.5-0.24-1-0.37-1.53Zm-2.7,6.22,2.33,0.89q0.23,1.26.37,2.38v4.46l-1.95,1.36-0.75-.36v-8.73Zm0-4.95,1-.45c0.46,1.84.85,3.58,1.16,5.17l-2.12-.81v-3.91Zm0-4.1q0.38,1.37.71,2.7l-0.71.33v-3Zm0-14.16,2.68,1.33,0,0.06v4.88l-2.2,1.31-0.5-4.59v-3Zm0-3,1.1-.66c0.4,1.24.8,2.49,1.19,3.73l-2.29-1.13v-1.93Zm0-4,0.79,2.42-0.79.48v-2.9Zm0-10.38,2.15-1.74c0.35,0.5.55,0.82,0.55,0.82v7.62l-2.7-1.88v-2.13l0.67-2-0.67-.22v-0.48Zm0-4.38c0.62,0.66,1.15,1.31,1.58,1.86l-1.58,1.27v-3.13Zm-0.12-39.77,1.21-.72V76.9l-1.21-.43V74.29Zm-0.79,1.91L109,75.65l1.57-.9V76.2Zm-2,91.27,2,0.93v0.95l-1.38,1-0.49-.14Zm-0.29-8.78,0.2-.79,2.06,0.79v8.64l-2-1ZM107.87,147l1.13-.67,1.15,0.7-1.87,7.55-0.16.08Zm0-1.38,0.24,0.15-0.23.14v-0.28Zm0-1.15-0.25-7.65c0.84,2.63,1.66,5.27,2.41,7.83l-0.94.56ZM106,167.87l0.36-1.45,1.22,0.58,0.09,2.9-1.42-.39C106.17,169,106.09,168.44,106,167.87Zm0.6-2.41,0.82-3.33,0.13,3.78Zm-1-8.58,0.08,0,1.56,0.6,0,1.14L105.7,165l-0.08,0v-8.11Zm1.29-.61,0.31-.14v0.26Zm-1.29-8,1.32-.78,0.25,7.54-1.52.72,0,0v-7.46Zm0-4.07,1.23,0.75,0,1.44-1.28.76v-2.95Zm0-5.5,0.93-2.8,0.26,7.89-1.19-.72v-4.36Zm0-5.81,0.79,0.39-0.61,1.82-0.18.11v-2.32Zm0-2.06,0.39,1.18-0.39-.19v-1Zm0-7.71,1.87-1.52,1.27,0.88,0.3,2.82-1.78,5.35h-0.13c-0.51-1.54-1-3.06-1.53-4.55v-3Zm0-2.82,1,0.73-1,.85v-1.58Zm0-5.47,0.6-1.38c0.68,1.89,1.41,4,2.18,6.18l-0.94.76-1.83-1.27v-4.29Zm0-3,0.12,0.33-0.12.28v-0.61Zm-2,53.27,0.34,0.16c0.27,1.26.5,2.45,0.68,3.55v0.23l-1-.28v-3.66Zm0-1.34,0.07,0.31-0.07,0v-0.27Zm0-7.73,0.82,0.31-0.82.39v-0.7Zm-1.71-4.38c-0.1-.33-0.19-0.65-0.29-1v0l3-1.78v6.52l-1-.39V151.8Z" transform="translate(0 -5.22)"/></svg>