<svg id="Layer_1" data-name="Layer 1" xmlns="http://www.w3.org/2000/svg" xmlns:xlink="http://www.w3.org/1999/xlink" viewBox="0 0 157.01 214.12"><defs><style>.cls-1{fill:url(#radial-gradient);}.cls-2{fill:#52ada1;}.cls-3{fill:#54c2b3;}</style><radialGradient id="radial-gradient" cx="-743.45" cy="-60.5" r="50.1" gradientTransform="translate(2461.15 235.2) scale(3.25 3.29)" gradientUnits="userSpaceOnUse"><stop offset="0" stop-color="#72cac6"/><stop offset="0.98" stop-color="#49948a"/></radialGradient></defs><title>mapMarker</title><path class="cls-1" d="M80.5,143.53c31.78,0,57.55-26.13,57.55-58.36S112.29,26.8,80.5,26.8,23,52.93,23,85.16,48.72,143.53,80.5,143.53Zm0-103.87c24.78,0,44.87,20.38,44.87,45.51s-20.09,45.51-44.87,45.51S35.63,110.29,35.63,85.16,55.72,39.66,80.5,39.66Z" transform="translate(-2 -5.55)"/><path class="cls-2" d="M143.53,132.64h0C153.25,119.38,159,98.27,159,80.47c0-44-35.15-74.92-78.5-74.92S2,41.19,2,85.16a80,80,0,0,0,15.48,47.48h0l0.06,0.08,0.08,0.12L80.5,219.67l62.88-86.84,0.09-.12ZM80.5,26.8c31.78,0,57.55,26.13,57.55,58.36s-25.77,58.36-57.55,58.36S23,117.39,23,85.16,48.72,26.8,80.5,26.8Z" transform="translate(-2 -5.55)"/><path class="cls-3" d="M79.54,143.5C48.2,143,23,117.07,23,85.16S48.2,27.35,79.54,26.83V5.58C36.63,6.1,2,41.52,2,85.16a80,80,0,0,0,15.48,47.48h0l0.06,0.08,0.08,0.12,61.92,85.5V143.5Z" transform="translate(-2 -5.55)"/></svg>