<?xml version="1.0" encoding="utf-8"?>
<!-- Generator: Adobe Illustrator 19.2.1, SVG Export Plug-In . SVG Version: 6.00 Build 0)  -->
<svg version="1.1" id="Capa_1" xmlns="http://www.w3.org/2000/svg" xmlns:xlink="http://www.w3.org/1999/xlink" x="0px" y="0px"
	 viewBox="0 0 70.8 70.8" style="enable-background:new 0 0 70.8 70.8;" xml:space="preserve">
<style type="text/css">
	.st0{fill:#666666;}
</style>
<g>
	<path class="st0" d="M19.8,30.6l2.9-2.9l2.4,2.4l-5.7,5.7C15,33.4,11.2,33,9.1,35.1C5.8,38.3,8.4,45.9,15,53l-6.5,6.4
		c-0.9-0.3-1.8-0.1-2.5,0.6c-1,1-1,2.6,0,3.6c1,1,2.6,1,3.6,0c0.7-0.7,0.9-1.6,0.6-2.5l6.5-6.4c7,6.8,14.6,9.4,17.9,6.2
		c2.1-2,1.8-5.8-0.4-10.1l5.8-5.8l3.2,3.2L40.3,51l19.8,19.8l10.7-10.7L51,40.3l-2.9,2.9l-3.2-3.2l8.7-8.7L38.7,16.4L30,25.1
		l-2.4-2.4l2.9-2.9L10.7,0L0,10.7L19.8,30.6z M26.2,58.6c-0.2-0.1-0.5-0.2-0.7-0.4c-2.2-1.1-4.7-2.9-7.2-5.3l1-0.9l2.6-2.6l-0.8-0.8
		l-0.8-0.8l-2.7,2.6l-0.9,0.9c-2.2-2.3-3.8-4.7-4.9-6.8c-0.1-0.3-0.3-0.5-0.4-0.8c-1.5-3.3-1.8-5.9-0.6-7c1.1-1.1,3.7-0.9,6.9,0.7
		c2.5,1.2,5.4,3.3,8.2,6.1l0.2,0.2c3,3,5.1,6.1,6.3,8.7c1.4,3.1,1.6,5.6,0.5,6.7C31.8,60.3,29.3,60.1,26.2,58.6z"/>
</g>
</svg>
