<svg id="Capa_1" data-name="Capa 1" xmlns="http://www.w3.org/2000/svg" viewBox="0 0 39.74 39.74"><defs><style>.cls-1{fill:#666;}</style></defs><title>terrainHybrid</title><path class="cls-1" d="M40.28-6V-24.11H32.23V-6H26.88V-39.8H13.45V-6H9.88V-27.74H-1.75V-6H-9.43V0h57V-6H40.28Zm-19-30.74h4.24v2.93H21.24v-2.93Zm0,4.62h4.24v2.93H21.24v-2.93Zm-6.4-4.62h4.24v2.93H14.84v-2.93Zm0,4.62h4.24v2.93H14.84v-2.93ZM5.57-25.23H8.16v3.46H5.57v-3.46ZM0-25.23H2.56v3.46H0v-3.46Zm47.6,65h-57l2.83-4.9,8.8-15.25c1.56-2.7,4.1-2.7,5.65,0l2.29,4c1.17-2,7.41-12.83,7.41-12.83C19.1,8,21.63,8,23.19,10.71l12.4,21.47,1.76-3c1.12-1.95,3-1.95,4.09,0l4.09,7.07Z"/></svg>