<?xml version="1.0" encoding="utf-8"?>
<!-- Generator: Adobe Illustrator 19.2.1, SVG Export Plug-In . SVG Version: 6.00 Build 0)  -->
<svg version="1.1" id="Capa_1" xmlns="http://www.w3.org/2000/svg" xmlns:xlink="http://www.w3.org/1999/xlink" x="0px" y="0px"
	 viewBox="0 0 39.7 39.7" style="enable-background:new 0 0 39.7 39.7;" xml:space="preserve">
<style type="text/css">
	.st0{fill:#666666;}
</style>
<g>
	<path class="st0" d="M40.5,37.6V19.5h-8.1v18.1h-5.4V3.8H13.7v33.8h-3.6V15.8H-1.5v21.7h-7.7v6h57v-6L40.5,37.6L40.5,37.6z
		 M21.5,6.8h4.2v2.9h-4.2V6.8z M21.5,11.4h4.2v2.9h-4.2V11.4z M15.1,6.8h4.2v2.9h-4.2V6.8z M15.1,11.4h4.2v2.9h-4.2V11.4z M5.8,18.4
		h2.6v3.5H5.8V18.4z M0.2,18.4h2.6v3.5H0.2V18.4z M47.8,83.3h-57l2.8-4.9l8.8-15.2c1.6-2.7,4.1-2.7,5.7,0c0,0,2,3.5,2.3,4
		c1.2-2,7.4-12.8,7.4-12.8c1.6-2.7,4.1-2.7,5.6,0l12.4,21.5c0.6-1.1,1.3-2.2,1.8-3c1.1-1.9,3-1.9,4.1,0c1.1,1.9,3,5.1,4.1,7.1
		L47.8,83.3z"/>
</g>
</svg>
