<?xml version="1.0" encoding="utf-8"?>
<!-- Generator: Adobe Illustrator 19.2.1, SVG Export Plug-In . SVG Version: 6.00 Build 0)  -->
<svg version="1.1" id="Capa_1" xmlns="http://www.w3.org/2000/svg" xmlns:xlink="http://www.w3.org/1999/xlink" x="0px" y="0px"
	 viewBox="0 0 494.9 494.9" style="enable-background:new 0 0 494.9 494.9;" xml:space="preserve">
<style type="text/css">
	.st0{fill:#666666;}
</style>
<g>
	<g>
		<g>
			<polygon class="st0" points="494.9,438.8 395.6,56.1 333.4,56.1 405.4,438.8 			"/>
			<polygon class="st0" points="89.5,438.8 161.5,56.1 99.3,56.1 0,438.8 			"/>
		</g>
		<g>
			<polygon class="st0" points="263.2,168.7 231.7,168.7 228.6,223.6 266.3,223.6 			"/>
			<polygon class="st0" points="257.1,59 237.8,59 234.7,113.9 260.2,113.9 			"/>
			<g>
				<polygon class="st0" points="120.9,438.8 192.7,56.4 191.3,56.1 172.4,56.1 100.5,438.8 				"/>
				<polygon class="st0" points="394.4,438.8 322.5,56.1 303.6,56.1 302.2,56.4 374,438.8 				"/>
			</g>
			<polygon class="st0" points="269.4,278.4 225.5,278.4 222.5,333.3 272.4,333.3 			"/>
			<polygon class="st0" points="278.1,438.8 275.5,388.1 219.4,388.1 216.8,438.8 			"/>
		</g>
	</g>
</g>
</svg>
