<?xml version="1.0" encoding="utf-8"?>
<!-- Generator: Adobe Illustrator 19.2.1, SVG Export Plug-In . SVG Version: 6.00 Build 0)  -->
<svg version="1.1" id="Layer_1" xmlns="http://www.w3.org/2000/svg" xmlns:xlink="http://www.w3.org/1999/xlink" x="0px" y="0px"
	 viewBox="0 0 1400 552" style="enable-background:new 0 0 1400 552;" xml:space="preserve">
<style type="text/css">
	.st0{fill:#F15B61;}
	.st1{fill:#FFFFFF;stroke:#FFFFFF;stroke-miterlimit:10;}
	.st2{display:none;opacity:0.63;fill:url(#SVGID_1_);}
	.st3{fill-rule:evenodd;clip-rule:evenodd;fill:#FFFFFF;}
	.st4{display:none;}
	.st5{display:inline;fill-rule:evenodd;clip-rule:evenodd;fill:#FFFFFF;}
</style>
<rect y="-81" class="st0" width="1400" height="980"/>
<rect y="572" class="st1" width="1400" height="327"/>
<radialGradient id="SVGID_1_" cx="2398.0371" cy="205.2224" r="1550.6379" gradientTransform="matrix(-2.923800e-11 0.2054 -1.8177 -2.573697e-11 1040.2809 38.677)" gradientUnits="userSpaceOnUse">
	<stop  offset="0" style="stop-color:#FFFFFF"/>
	<stop  offset="0.9172" style="stop-color:#010101;stop-opacity:0"/>
</radialGradient>
<polygon class="st2" points="0,999.3 0,51.5 1400,51.5 1400,999.3 "/>
<g>
	<polygon class="st3" points="9.7,427.6 46.9,427.6 46.9,484.8 69.8,484.8 69.8,465.4 77,465.4 77,472.4 102.7,472.4 102.7,431 
		140.8,431 140.8,509.9 146.1,509.9 146.1,481 160.4,481 160.4,414.3 185.6,414.3 185.6,487.2 202.3,487.2 202.3,442.4 228.5,442.4 
		228.5,487.2 228.5,504.8 228.5,509.9 239.5,509.9 239.5,460.5 263.3,460.5 263.3,482 278.1,482 278.1,420 312,420 312,488.2 
		341.5,488.2 341.5,412.8 375.8,412.8 375.8,477.2 397.8,477.2 397.8,491.3 375.8,491.3 375.8,509.9 423.5,509.9 423.5,353.7 
		430.7,353.7 430.7,352.3 439.7,352.3 439.7,347.1 440.7,347.1 440.7,352.3 460.7,352.3 460.7,353.7 464,353.7 464,509.9 515,509.9 
		515,447.1 546.9,447.1 546.9,486.1 576.9,486.1 576.9,509.9 583.3,509.9 583.3,457.6 596,457.6 596,367.7 617.7,367.7 617.7,362.8 
		629.8,362.8 629.8,348.5 632.8,348.5 632.8,328.3 634.9,328.3 634.9,348.5 634.9,362.8 634.9,367.7 640.9,367.7 640.9,362.8 
		640.9,348.5 640.9,328.3 643.1,328.3 643.1,348.5 646.1,348.5 646.1,362.8 658.1,362.8 658.1,367.7 674.7,367.7 674.7,509.9 
		710.1,509.9 710.1,465.9 732.3,465.9 732.3,485.4 758.9,485.4 758.9,509.9 811.4,509.9 811.4,425.5 809.8,425.5 809.8,417.9 
		813.7,417.9 813.7,415.6 818.6,415.6 818.6,412.1 831.5,412.1 831.5,409.8 860.9,409.8 860.9,415 859.8,415 859.8,417.9 
		861.4,417.9 861.4,425.5 859.5,425.5 859.5,509.9 927.5,509.9 927.5,412.2 956.7,412.2 956.7,509.9 969.1,509.9 969.1,464.4 
		987.3,464.4 987.3,509.9 1027.1,509.9 1027.1,459.7 1040.4,459.7 1040.4,509.9 1048.6,509.9 1157.7,509.9 1165.9,509.9 
		1165.9,474.7 1175.9,474.7 1175.9,421.7 1194.5,421.7 1194.5,509.9 1200.4,509.9 1200.4,436.7 1237.8,436.7 1237.8,509.9 
		1250.5,509.9 1250.5,474.7 1257.6,474.7 1257.6,435.5 1282.9,435.5 1282.9,474.8 1321.4,474.8 1321.4,432.8 1341.5,432.8 
		1341.5,474.8 1344.4,474.8 1344.4,493.1 1367.2,493.1 1367.2,509.9 1371.5,509.9 1371.5,479 1386.9,479 1386.9,490.4 1396.5,490.4 
		1396.5,509.9 1400,509.9 1400,525.9 0,525.9 0,509.9 9.7,509.9 9.7,427.6 	"/>
	<path class="st3" d="M0,584.3h1400v-68.4h-6v-17.3h-3.3v-2.3h-3.9v2.3h-5.3v-5.9h-5.9V490h-8.6v-4.6h-6.9v4.6h-2.6v2.6h-2v5.9h-6.3
		v17.3h-3v-8.7h-8.6v-6.9h-12.5v6.9h-14.2v-9.5h-24.4v9.5h-17.5v-12.5h-12.5v-9.9h-24.4v-27.4h-34v37.2h-4.9v14.2h-11.5v-17.2h-35.6
		v15.2h-9.2v-42.5h-6.9v-2H1119v2h-3.3v51.6h-7.9v-12h-14.3v-2.4h0v-17.3h0.4l-1.4-7l-1.3,6.7v-13.1h0.6l-1.4-6.9l-1.2,6.1h-0.3
		v-5.6h-1v-9.4h0.6l-2.8-13.9l-2.8,13.9h0.6v9.4h-1v5.6h-0.3l-1.2-6.1l-1.4,6.9h0.6v13.3h-0.2l-1.4-6.8l-1.4,7h0.6v5.8l-7-6.4
		l-3.4,3.1h-5.5v-2.6h0.4l-1.4-7l-1.3,6.7v-13.1h0.6l-1.4-6.9l-1.2,6.1h-0.3v-5.6h-1v-9.4h0.6l-2.8-13.9l-2.8,13.9h0.6v9.4h-1v5.6
		h-0.3l-1.2-6.1l-1.4,6.9h0.6v13.3h-0.2l-1.4-6.8l-1.4,7h0.6v9h-13.9v-109h-8.6V382h-6.7v2.2h-12.4v-16.9h-0.9v16.9h-6.9v-3.8h-12.4
		v3.8h-6.7v114.4h-3.7v-51.8h-21.8v61.3h-4.2V479h-10V241h-7.5v-11.3h-66.6V241h-7.5v250.5H823v24.4h-16.2V467h-10.7v-87.2h-5v-2.7
		h-36.2v2.7h-5v118.4h-9.2v17.7h-5.1l-6.5-7.8l-11.6-90.6v-99l-11.7-8.6l-5.9-79.8l-5.9,79.8l-11.7,8.6v99l-11.6,90.6l-6.5,7.8h-2.4
		V409.3h-2.2v-5.2h-5.6v-7.8h-32.1v7.8h-5.6v5.2h-2.2v86.8h-6.1v11.7h-3.9v-18.1h-3.2v-6H591v6H579v26.2h-3.2v-12.3h-2.1V381.3H572
		v-20.5h-14.7v20.5h-1.6v127.9h-2.3v6.7h-2.5v-23.7h-9.5V359.9h-82.3v105.3h-8.8v33.2h-1.5v-8.1h-8.8v25.5h-1.5v-35.8h-11.4v-19.8
		h-11.5v-46.2h-25.6v32.5l-3.2-2.6l-0.4-0.3h-0.4H285.1c-33.5-13.6-63.7-29.5-90.8-47.4c-26.9-17.8-50.7-37.7-71.6-59.5V336v-2.9
		h-4.4v2.9H96.9v-2.9h-4.4v3.7c-20.8,21.9-44.7,41.7-71.6,59.5c-6.8,4.5-13.8,8.8-21,13.1v2.9c7.7-4.5,15.1-9.1,22.4-13.9
		c26.3-17.4,49.7-36.8,70.2-58v21.7c-20.8,19.9-44.6,37.5-71.5,52.7C14.2,418.7,7.2,422.4,0,426v2.7c7.6-3.8,15.1-7.7,22.3-11.7
		c26.3-14.9,49.7-32.1,70.3-51.5v78.3H0v2.5h6.8v9.2H0v2.5h92.6v34h-9.1v10.3H68.8v-9.3H57.1v9.3H30v-24.2H3.7v37.9H0V584.3L0,584.3
		z M359.5,480.5h8.6v-22.6h-15.2v18.6h6.7V480.5L359.5,480.5z M343.1,476.5v-18.6h-21.3v58h9.2v-39.4H343.1L343.1,476.5z
		 M390.1,455.4v-5.6l-4.4-3.6h-0.2v9.2H390.1L390.1,455.4z M290.7,506.5h1v-48.6H122.7v34h6.2v-23.4h19.8v41.7h5.1v-22h17.6V475
		h21.2v35.1h11v5.7h10.3v-42.3H249v27.1h19v-31.5h22.7V506.5L290.7,506.5z M297.3,506.5h12.4v7.8l7.1-7.1l-10.1-10.1l0,0l0,0
		L297.3,506.5L297.3,506.5z M96.9,491.9h5.5l-5.5-5.5V491.9L96.9,491.9z M105.9,491.9h3.5l8.4-8.4l-10.1-10.1h0l0,0l-10.1,10.1
		L105.9,491.9L105.9,491.9z M112.9,491.9h5.5v-5.5L112.9,491.9L112.9,491.9z M317.4,515.9h-5.8l5.8-5.8V515.9L317.4,515.9z
		 M8.7,455.4h8v-9.2h-8V455.4L8.7,455.4z M18.6,455.4h8v-9.2h-8V455.4L18.6,455.4z M28.6,455.4h8v-9.2h-8V455.4L28.6,455.4z
		 M38.5,455.4h8v-9.2h-8V455.4L38.5,455.4z M48.4,455.4h8v-9.2h-8V455.4L48.4,455.4z M58.3,455.4h8v-9.2h-8V455.4L58.3,455.4z
		 M68.2,455.4h8v-9.2h-8V455.4L68.2,455.4z M78.1,455.4h8v-9.2h-8V455.4L78.1,455.4z M88,455.4h4.5v-9.2H88V455.4L88,455.4z
		 M127.7,446.3v9.2h8v-9.2H127.7L127.7,446.3z M125.8,455.4v-9.2h-3.1v9.2H125.8L125.8,455.4z M137.6,446.3v9.2h8v-9.2H137.6
		L137.6,446.3z M147.5,446.3v9.2h8v-9.2H147.5L147.5,446.3z M157.4,446.3v9.2h8v-9.2H157.4L157.4,446.3z M167.4,446.3v9.2h8v-9.2
		H167.4L167.4,446.3z M177.3,446.3v9.2h8v-9.2H177.3L177.3,446.3z M187.2,446.3v9.2h8v-9.2H187.2L187.2,446.3z M197.1,446.3v9.2h8
		v-9.2H197.1L197.1,446.3z M207,446.3v9.2h8v-9.2H207L207,446.3z M216.9,446.3v9.2h8v-9.2H216.9L216.9,446.3z M226.8,446.3v9.2h8
		v-9.2H226.8L226.8,446.3z M236.8,446.3v9.2h8v-9.2H236.8L236.8,446.3z M246.7,446.3v9.2h8v-9.2H246.7L246.7,446.3z M256.6,446.3
		v9.2h8v-9.2H256.6L256.6,446.3z M266.5,446.3v9.2h8v-9.2H266.5L266.5,446.3z M276.4,446.3v9.2h8v-9.2H276.4L276.4,446.3z
		 M286.3,446.3v9.2h8v-9.2H286.3L286.3,446.3z M296.2,446.3v9.2h8v-9.2H296.2L296.2,446.3z M306.2,446.3v9.2h8v-9.2H306.2
		L306.2,446.3z M316.1,446.3v9.2h8v-9.2H316.1L316.1,446.3z M326,446.3v9.2h8v-9.2H326L326,446.3z M335.9,446.3v9.2h8v-9.2H335.9
		L335.9,446.3z M345.8,446.3v9.2h8v-9.2H345.8L345.8,446.3z M355.7,446.3v9.2h8v-9.2H355.7L355.7,446.3z M365.6,446.3v9.2h8v-9.2
		H365.6L365.6,446.3z M375.6,446.3v9.2h8v-9.2H375.6L375.6,446.3z M296,504.3l9-9l-9-9V504.3L296,504.3z M296,480.6l9-9l-9-8.9
		V480.6L296,480.6z M317.4,462.7l-9,8.9l9,9V462.7L317.4,462.7z M317.4,486.4l-9,9l9,9V486.4L317.4,486.4z M315,457.9h-16.5
		l-1.9,1.9l10.1,10.1l0,0l0,0l10.1-10.1L315,457.9L315,457.9z M306.7,473.4L306.7,473.4L306.7,473.4l-10.1,10.1l10.1,10.1l0,0l0,0
		l10.1-10.1L306.7,473.4L306.7,473.4z M122.7,340.4v21.7c20.8,19.9,44.6,37.5,71.5,52.7c19.1,10.8,39.8,20.5,62.2,29h22.2
		c-31.5-13.2-60-28.3-85.7-45.3C166.6,381.1,143.3,361.7,122.7,340.4L122.7,340.4z M122.7,365.5v78.3h126.8
		c-20.2-7.9-39-16.9-56.5-26.8C166.7,402.1,143.3,384.9,122.7,365.5L122.7,365.5z M98.2,340.4l-0.7,0.7l10.1,10.1l0,0h0l10.1-10.1
		l-0.7-0.7H98.2L98.2,340.4z M118.4,344l-9,9l9,9V344L118.4,344z M107.6,354.7L107.6,354.7L107.6,354.7l-10.1,10.1l10.1,10.1l0,0h0
		l10.1-10.1L107.6,354.7L107.6,354.7z M105.9,353l-9-9V362L105.9,353L105.9,353z M96.9,443.8h4.9l-4.9-4.9V443.8L96.9,443.8z
		 M105.3,443.8h4.7l7.8-7.7l-10.1-10.1h0l0,0L97.5,436L105.3,443.8L105.3,443.8z M113.5,443.8h4.9v-4.9L113.5,443.8L113.5,443.8z
		 M115.9,457.9H99.4l-1.9,1.9l10.1,10.1l0,0h0l10.1-10.1L115.9,457.9L115.9,457.9z M96.9,455.4h1.5l7.5-7.5l-1.6-1.6h-7.3V455.4
		L96.9,455.4z M101.9,455.4h11.5l-5.8-5.8h0l0,0L101.9,455.4L101.9,455.4z M116.9,455.4h1.5v-9.2H111l-1.6,1.6L116.9,455.4
		L116.9,455.4z M118.4,480.6v-17.9l-9,8.9L118.4,480.6L118.4,480.6z M105.9,471.6l-9-8.9v17.9L105.9,471.6L105.9,471.6z
		 M118.4,433.2v-17.9l-9,8.9L118.4,433.2L118.4,433.2z M105.9,424.2l-9-8.9v17.9L105.9,424.2L105.9,424.2z M107.6,422.4L107.6,422.4
		L107.6,422.4l10.1-10.1l-10.1-10.1h0l0,0l-10.1,10.1L107.6,422.4L107.6,422.4z M118.4,409.4v-17.9l-9,9L118.4,409.4L118.4,409.4z
		 M105.9,400.4l-9-9v18L105.9,400.4L105.9,400.4z M107.6,398.7L107.6,398.7L107.6,398.7l10.1-10.1l-10.1-10.1h0l0,0l-10.1,10.1
		L107.6,398.7L107.6,398.7z M118.4,385.7v-17.9l-9,9L118.4,385.7L118.4,385.7z M105.9,376.7l-9-9v17.9L105.9,376.7L105.9,376.7z
		 M562.4,362.7h2.2v5.3h-2.2V362.7L562.4,362.7z M562.4,370.3h2.2v8.6h-2.2V370.3L562.4,370.3z M567.8,362.7h2.2v5.3h-2.2V362.7
		L567.8,362.7z M567.8,370.3h2.2v8.6h-2.2V370.3L567.8,370.3z"/>
	<path class="st3" d="M1214.9,368h4v-6.4h5.2V339c-2.7,1.2-5.8-0.4-8,3.6v-4.1c1.8-3.3,5.3-1.3,8-3.5v-1.2h0.8v27.7h7.9v6.4h24.7
		v-9.2h16v124.5l8.9,16.1h-74.2l6.8-16.1V368L1214.9,368z"/>
	<polygon class="st3" points="1093.1,496.9 1096.5,496.9 1096.5,419.6 1096.5,393.7 1125,393.7 1125,419.6 1146.3,419.6 
		1146.3,463.8 1171,463.8 1171,512.9 1093.1,512.9 1093.1,496.9 	"/>
</g>
<g class="st4">
	<polygon class="st5" points="9.7,429.6 46.9,429.6 46.9,486.8 69.8,486.8 69.8,467.4 77,467.4 77,474.4 102.7,474.4 102.7,433 
		140.8,433 140.8,511.9 146.1,511.9 146.1,483 160.4,483 160.4,416.3 185.6,416.3 185.6,489.2 202.3,489.2 202.3,444.4 228.5,444.4 
		228.5,489.2 228.5,506.8 228.5,511.9 239.5,511.9 239.5,462.5 263.3,462.5 263.3,484 278.1,484 278.1,422 312,422 312,490.2 
		341.5,490.2 341.5,414.8 375.8,414.8 375.8,479.2 397.8,479.2 397.8,493.3 375.8,493.3 375.8,511.9 423.5,511.9 423.5,355.7 
		430.7,355.7 430.7,354.3 439.7,354.3 439.7,349.1 440.7,349.1 440.7,354.3 460.7,354.3 460.7,355.7 464,355.7 464,511.9 515,511.9 
		515,449.1 546.9,449.1 546.9,488.1 576.9,488.1 576.9,511.9 583.3,511.9 583.3,459.6 596,459.6 596,369.7 617.7,369.7 617.7,364.8 
		629.8,364.8 629.8,350.5 632.8,350.5 632.8,330.3 634.9,330.3 634.9,350.5 634.9,364.8 634.9,369.7 640.9,369.7 640.9,364.8 
		640.9,350.5 640.9,330.3 643.1,330.3 643.1,350.5 646.1,350.5 646.1,364.8 658.1,364.8 658.1,369.7 674.7,369.7 674.7,511.9 
		710.1,511.9 710.1,467.9 732.3,467.9 732.3,487.4 758.9,487.4 758.9,511.9 811.4,511.9 811.4,427.5 809.8,427.5 809.8,419.9 
		813.7,419.9 813.7,417.6 818.6,417.6 818.6,414.1 831.5,414.1 831.5,411.8 860.9,411.8 860.9,417 859.8,417 859.8,419.9 
		861.4,419.9 861.4,427.5 859.5,427.5 859.5,511.9 927.5,511.9 927.5,414.2 956.7,414.2 956.7,511.9 969.1,511.9 969.1,466.4 
		987.3,466.4 987.3,511.9 1027.1,511.9 1027.1,461.7 1040.4,461.7 1040.4,511.9 1048.6,511.9 1157.7,511.9 1165.9,511.9 
		1165.9,476.7 1175.9,476.7 1175.9,423.7 1194.5,423.7 1194.5,511.9 1200.4,511.9 1200.4,438.7 1237.8,438.7 1237.8,511.9 
		1250.5,511.9 1250.5,476.7 1257.6,476.7 1257.6,437.5 1282.9,437.5 1282.9,476.8 1321.4,476.8 1321.4,434.8 1341.5,434.8 
		1341.5,476.8 1344.4,476.8 1344.4,495.1 1367.2,495.1 1367.2,511.9 1371.5,511.9 1371.5,481 1386.9,481 1386.9,492.4 1396.5,492.4 
		1396.5,511.9 1400,511.9 1400,527.9 0,527.9 0,511.9 9.7,511.9 9.7,429.6 	"/>
	<path class="st5" d="M0,586.3h1400v-68.4h-6v-17.3h-3.3v-2.3h-3.9v2.3h-5.3v-5.9h-5.9V492h-8.6v-4.6h-6.9v4.6h-2.6v2.6h-2v5.9h-6.3
		v17.3h-3v-8.7h-8.6v-6.9h-12.5v6.9h-14.2v-9.5h-24.4v9.5h-17.5v-12.5h-12.5v-9.9h-24.4v-27.4h-34v37.2h-4.9v14.2h-11.5v-17.2h-35.6
		v15.2h-9.2v-42.5h-6.9v-2H1119v2h-3.3v51.6h-7.9v-12h-14.3v-2.4h0v-17.3h0.4l-1.4-7l-1.3,6.7v-13.1h0.6l-1.4-6.9l-1.2,6.1h-0.3
		v-5.6h-1v-9.4h0.6l-2.8-13.9l-2.8,13.9h0.6v9.4h-1v5.6h-0.3l-1.2-6.1l-1.4,6.9h0.6v13.3h-0.2l-1.4-6.8l-1.4,7h0.6v5.8l-7-6.4
		l-3.4,3.1h-5.5v-2.6h0.4l-1.4-7l-1.3,6.7v-13.1h0.6l-1.4-6.9l-1.2,6.1h-0.3v-5.6h-1v-9.4h0.6l-2.8-13.9l-2.8,13.9h0.6v9.4h-1v5.6
		h-0.3l-1.2-6.1l-1.4,6.9h0.6v13.3h-0.2l-1.4-6.8l-1.4,7h0.6v9h-13.9v-109h-8.6V384h-6.7v2.2h-12.4v-16.9h-0.9v16.9h-6.9v-3.8h-12.4
		v3.8h-6.7v114.4h-3.7v-51.8h-21.8v61.3h-4.2V481h-10V243h-7.5v-11.3h-66.6V243h-7.5v250.5H823v24.4h-16.2V469h-10.7v-87.2h-5v-2.7
		h-36.2v2.7h-5v118.4h-9.2v17.7h-5.1l-6.5-7.8l-11.6-90.6v-99l-11.7-8.6l-5.9-79.8l-5.9,79.8l-11.7,8.6v99l-11.6,90.6l-6.5,7.8h-2.4
		V411.3h-2.2v-5.2h-5.6v-7.8h-32.1v7.8h-5.6v5.2h-2.2v86.8h-6.1v11.7h-3.9v-18.1h-3.2v-6H591v6H579v26.2h-3.2v-12.3h-2.1V383.3H572
		v-20.5h-14.7v20.5h-1.6v127.9h-2.3v6.7h-2.5v-23.7h-9.5V361.9h-82.3v105.3h-8.8v33.2h-1.5v-8.1h-8.8v25.5h-1.5v-35.8h-11.4v-19.8
		h-11.5v-46.2h-25.6v32.5l-3.2-2.6l-0.4-0.3h-0.4H285.1c-33.5-13.6-63.7-29.5-90.8-47.4c-26.9-17.8-50.7-37.7-71.6-59.5V338v-2.9
		h-4.4v2.9H96.9v-2.9h-4.4v3.7c-20.8,21.9-44.7,41.7-71.6,59.5c-6.8,4.5-13.8,8.8-21,13.1v2.9c7.7-4.5,15.1-9.1,22.4-13.9
		c26.3-17.4,49.7-36.8,70.2-58v21.7c-20.8,19.9-44.6,37.5-71.5,52.7C14.2,420.7,7.2,424.4,0,428v2.7c7.6-3.8,15.1-7.7,22.3-11.7
		c26.3-14.9,49.7-32.1,70.3-51.5v78.3H0v2.5h6.8v9.2H0v2.5h92.6v34h-9.1v10.3H68.8v-9.3H57.1v9.3H30v-24.2H3.7v37.9H0V586.3L0,586.3
		z M359.5,482.5h8.6v-22.6h-15.2v18.6h6.7V482.5L359.5,482.5z M343.1,478.5v-18.6h-21.3v58h9.2v-39.4H343.1L343.1,478.5z
		 M390.1,457.4v-5.6l-4.4-3.6h-0.2v9.2H390.1L390.1,457.4z M290.7,508.5h1v-48.6H122.7v34h6.2v-23.4h19.8v41.7h5.1v-22h17.6V477
		h21.2v35.1h11v5.7h10.3v-42.3H249v27.1h19v-31.5h22.7V508.5L290.7,508.5z M297.3,508.5h12.4v7.8l7.1-7.1l-10.1-10.1l0,0l0,0
		L297.3,508.5L297.3,508.5z M96.9,493.9h5.5l-5.5-5.5V493.9L96.9,493.9z M105.9,493.9h3.5l8.4-8.4l-10.1-10.1h0l0,0l-10.1,10.1
		L105.9,493.9L105.9,493.9z M112.9,493.9h5.5v-5.5L112.9,493.9L112.9,493.9z M317.4,517.9h-5.8l5.8-5.8V517.9L317.4,517.9z
		 M8.7,457.4h8v-9.2h-8V457.4L8.7,457.4z M18.6,457.4h8v-9.2h-8V457.4L18.6,457.4z M28.6,457.4h8v-9.2h-8V457.4L28.6,457.4z
		 M38.5,457.4h8v-9.2h-8V457.4L38.5,457.4z M48.4,457.4h8v-9.2h-8V457.4L48.4,457.4z M58.3,457.4h8v-9.2h-8V457.4L58.3,457.4z
		 M68.2,457.4h8v-9.2h-8V457.4L68.2,457.4z M78.1,457.4h8v-9.2h-8V457.4L78.1,457.4z M88,457.4h4.5v-9.2H88V457.4L88,457.4z
		 M127.7,448.3v9.2h8v-9.2H127.7L127.7,448.3z M125.8,457.4v-9.2h-3.1v9.2H125.8L125.8,457.4z M137.6,448.3v9.2h8v-9.2H137.6
		L137.6,448.3z M147.5,448.3v9.2h8v-9.2H147.5L147.5,448.3z M157.4,448.3v9.2h8v-9.2H157.4L157.4,448.3z M167.4,448.3v9.2h8v-9.2
		H167.4L167.4,448.3z M177.3,448.3v9.2h8v-9.2H177.3L177.3,448.3z M187.2,448.3v9.2h8v-9.2H187.2L187.2,448.3z M197.1,448.3v9.2h8
		v-9.2H197.1L197.1,448.3z M207,448.3v9.2h8v-9.2H207L207,448.3z M216.9,448.3v9.2h8v-9.2H216.9L216.9,448.3z M226.8,448.3v9.2h8
		v-9.2H226.8L226.8,448.3z M236.8,448.3v9.2h8v-9.2H236.8L236.8,448.3z M246.7,448.3v9.2h8v-9.2H246.7L246.7,448.3z M256.6,448.3
		v9.2h8v-9.2H256.6L256.6,448.3z M266.5,448.3v9.2h8v-9.2H266.5L266.5,448.3z M276.4,448.3v9.2h8v-9.2H276.4L276.4,448.3z
		 M286.3,448.3v9.2h8v-9.2H286.3L286.3,448.3z M296.2,448.3v9.2h8v-9.2H296.2L296.2,448.3z M306.2,448.3v9.2h8v-9.2H306.2
		L306.2,448.3z M316.1,448.3v9.2h8v-9.2H316.1L316.1,448.3z M326,448.3v9.2h8v-9.2H326L326,448.3z M335.9,448.3v9.2h8v-9.2H335.9
		L335.9,448.3z M345.8,448.3v9.2h8v-9.2H345.8L345.8,448.3z M355.7,448.3v9.2h8v-9.2H355.7L355.7,448.3z M365.6,448.3v9.2h8v-9.2
		H365.6L365.6,448.3z M375.6,448.3v9.2h8v-9.2H375.6L375.6,448.3z M296,506.3l9-9l-9-9V506.3L296,506.3z M296,482.6l9-9l-9-8.9
		V482.6L296,482.6z M317.4,464.7l-9,8.9l9,9V464.7L317.4,464.7z M317.4,488.4l-9,9l9,9V488.4L317.4,488.4z M315,459.9h-16.5
		l-1.9,1.9l10.1,10.1l0,0l0,0l10.1-10.1L315,459.9L315,459.9z M306.7,475.4L306.7,475.4L306.7,475.4l-10.1,10.1l10.1,10.1l0,0l0,0
		l10.1-10.1L306.7,475.4L306.7,475.4z M122.7,342.4v21.7c20.8,19.9,44.6,37.5,71.5,52.7c19.1,10.8,39.8,20.5,62.2,29h22.2
		c-31.5-13.2-60-28.3-85.7-45.3C166.6,383.1,143.3,363.7,122.7,342.4L122.7,342.4z M122.7,367.5v78.3h126.8
		c-20.2-7.9-39-16.9-56.5-26.8C166.7,404.1,143.3,386.9,122.7,367.5L122.7,367.5z M98.2,342.4l-0.7,0.7l10.1,10.1l0,0h0l10.1-10.1
		l-0.7-0.7H98.2L98.2,342.4z M118.4,346l-9,9l9,9V346L118.4,346z M107.6,356.7L107.6,356.7L107.6,356.7l-10.1,10.1l10.1,10.1l0,0h0
		l10.1-10.1L107.6,356.7L107.6,356.7z M105.9,355l-9-9V364L105.9,355L105.9,355z M96.9,445.8h4.9l-4.9-4.9V445.8L96.9,445.8z
		 M105.3,445.8h4.7l7.8-7.7l-10.1-10.1h0l0,0L97.5,438L105.3,445.8L105.3,445.8z M113.5,445.8h4.9v-4.9L113.5,445.8L113.5,445.8z
		 M115.9,459.9H99.4l-1.9,1.9l10.1,10.1l0,0h0l10.1-10.1L115.9,459.9L115.9,459.9z M96.9,457.4h1.5l7.5-7.5l-1.6-1.6h-7.3V457.4
		L96.9,457.4z M101.9,457.4h11.5l-5.8-5.8h0l0,0L101.9,457.4L101.9,457.4z M116.9,457.4h1.5v-9.2H111l-1.6,1.6L116.9,457.4
		L116.9,457.4z M118.4,482.6v-17.9l-9,8.9L118.4,482.6L118.4,482.6z M105.9,473.6l-9-8.9v17.9L105.9,473.6L105.9,473.6z
		 M118.4,435.2v-17.9l-9,8.9L118.4,435.2L118.4,435.2z M105.9,426.2l-9-8.9v17.9L105.9,426.2L105.9,426.2z M107.6,424.4L107.6,424.4
		L107.6,424.4l10.1-10.1l-10.1-10.1h0l0,0l-10.1,10.1L107.6,424.4L107.6,424.4z M118.4,411.4v-17.9l-9,9L118.4,411.4L118.4,411.4z
		 M105.9,402.4l-9-9v18L105.9,402.4L105.9,402.4z M107.6,400.7L107.6,400.7L107.6,400.7l10.1-10.1l-10.1-10.1h0l0,0l-10.1,10.1
		L107.6,400.7L107.6,400.7z M118.4,387.7v-17.9l-9,9L118.4,387.7L118.4,387.7z M105.9,378.7l-9-9v17.9L105.9,378.7L105.9,378.7z
		 M562.4,364.7h2.2v5.3h-2.2V364.7L562.4,364.7z M562.4,372.3h2.2v8.6h-2.2V372.3L562.4,372.3z M567.8,364.7h2.2v5.3h-2.2V364.7
		L567.8,364.7z M567.8,372.3h2.2v8.6h-2.2V372.3L567.8,372.3z"/>
	<path class="st5" d="M1214.9,370h4v-6.4h5.2V341c-2.7,1.2-5.8-0.4-8,3.6v-4.1c1.8-3.3,5.3-1.3,8-3.5v-1.2h0.8v27.7h7.9v6.4h24.7
		v-9.2h16v124.5l8.9,16.1h-74.2l6.8-16.1V370L1214.9,370z"/>
	<polygon class="st5" points="1093.1,498.9 1096.5,498.9 1096.5,421.6 1096.5,395.7 1125,395.7 1125,421.6 1146.3,421.6 
		1146.3,465.8 1171,465.8 1171,514.9 1093.1,514.9 1093.1,498.9 	"/>
</g>
</svg>
