<?xml version="1.0" encoding="utf-8"?>
<!-- Generator: Adobe Illustrator 19.2.1, SVG Export Plug-In . SVG Version: 6.00 Build 0)  -->
<svg version="1.1" id="Layer_1" xmlns="http://www.w3.org/2000/svg" xmlns:xlink="http://www.w3.org/1999/xlink" x="0px" y="0px"
	 viewBox="0 0 1400 408.3" style="enable-background:new 0 0 1400 408.3;" xml:space="preserve">
<style type="text/css">
	.st0{fill:#F16155;}
	.st1{fill:#FFFFFF;stroke:#FFFFFF;stroke-miterlimit:10;}
	.st2{display:none;fill:url(#SVGID_1_);}
	.st3{fill-rule:evenodd;clip-rule:evenodd;fill:#FFFFFF;}
	.st4{display:none;}
	.st5{display:inline;fill-rule:evenodd;clip-rule:evenodd;fill:#FFFFFF;}
</style>
<rect y="-257" class="st0" width="1400" height="980"/>
<rect y="396" class="st1" width="1400" height="327"/>
<radialGradient id="SVGID_1_" cx="2398.0371" cy="29.2224" r="1550.6379" gradientTransform="matrix(-2.923800e-11 0.1877 -1.8177 -2.351747e-11 720.3683 -69.7458)" gradientUnits="userSpaceOnUse">
	<stop  offset="0" style="stop-color:#FFFFFF"/>
	<stop  offset="0.9172" style="stop-color:#010101;stop-opacity:0"/>
</radialGradient>
<polygon class="st2" points="0,808 0,-58 1400,-58 1400,808 "/>
<g>
	<polygon class="st3" points="9.7,251.6 46.9,251.6 46.9,308.8 69.8,308.8 69.8,289.4 77,289.4 77,296.4 102.7,296.4 102.7,255 
		140.8,255 140.8,333.9 146.1,333.9 146.1,305 160.4,305 160.4,238.3 185.6,238.3 185.6,311.2 202.3,311.2 202.3,266.4 228.5,266.4 
		228.5,311.2 228.5,328.8 228.5,333.9 239.5,333.9 239.5,284.5 263.3,284.5 263.3,306 278.1,306 278.1,244 312,244 312,312.2 
		341.5,312.2 341.5,236.8 375.8,236.8 375.8,301.2 397.8,301.2 397.8,315.3 375.8,315.3 375.8,333.9 423.5,333.9 423.5,177.7 
		430.7,177.7 430.7,176.3 439.7,176.3 439.7,171.1 440.7,171.1 440.7,176.3 460.7,176.3 460.7,177.7 464,177.7 464,333.9 515,333.9 
		515,271.1 546.9,271.1 546.9,310.1 576.9,310.1 576.9,333.9 583.3,333.9 583.3,281.6 596,281.6 596,191.7 617.7,191.7 617.7,186.8 
		629.8,186.8 629.8,172.5 632.8,172.5 632.8,152.3 634.9,152.3 634.9,172.5 634.9,186.8 634.9,191.7 640.9,191.7 640.9,186.8 
		640.9,172.5 640.9,152.3 643.1,152.3 643.1,172.5 646.1,172.5 646.1,186.8 658.1,186.8 658.1,191.7 674.7,191.7 674.7,333.9 
		710.1,333.9 710.1,289.9 732.3,289.9 732.3,309.4 758.9,309.4 758.9,333.9 811.4,333.9 811.4,249.5 809.8,249.5 809.8,241.9 
		813.7,241.9 813.7,239.6 818.6,239.6 818.6,236.1 831.5,236.1 831.5,233.8 860.9,233.8 860.9,239 859.8,239 859.8,241.9 
		861.4,241.9 861.4,249.5 859.5,249.5 859.5,333.9 927.5,333.9 927.5,236.2 956.7,236.2 956.7,333.9 969.1,333.9 969.1,288.4 
		987.3,288.4 987.3,333.9 1027.1,333.9 1027.1,283.7 1040.4,283.7 1040.4,333.9 1048.6,333.9 1157.7,333.9 1165.9,333.9 
		1165.9,298.7 1175.9,298.7 1175.9,245.7 1194.5,245.7 1194.5,333.9 1200.4,333.9 1200.4,260.7 1237.8,260.7 1237.8,333.9 
		1250.5,333.9 1250.5,298.7 1257.6,298.7 1257.6,259.5 1282.9,259.5 1282.9,298.8 1321.4,298.8 1321.4,256.8 1341.5,256.8 
		1341.5,298.8 1344.4,298.8 1344.4,317.1 1367.2,317.1 1367.2,333.9 1371.5,333.9 1371.5,303 1386.9,303 1386.9,314.4 1396.5,314.4 
		1396.5,333.9 1400,333.9 1400,349.9 0,349.9 0,333.9 9.7,333.9 9.7,251.6 	"/>
	<path class="st3" d="M0,408.3h1400v-68.4h-6v-17.3h-3.3v-2.3h-3.9v2.3h-5.3v-5.9h-5.9V314h-8.6v-4.6h-6.9v4.6h-2.6v2.6h-2v5.9h-6.3
		v17.3h-3v-8.7h-8.6v-6.9h-12.5v6.9h-14.2v-9.5h-24.4v9.5h-17.5v-12.5h-12.5v-9.9h-24.4v-27.4h-34v37.2h-4.9v14.2h-11.5v-17.2h-35.6
		v15.2h-9.2v-42.5h-6.9v-2H1119v2h-3.3v51.6h-7.9v-12h-14.3v-2.4h0v-17.3h0.4l-1.4-7l-1.3,6.7v-13.1h0.6l-1.4-6.9l-1.2,6.1h-0.3
		v-5.6h-1v-9.4h0.6l-2.8-13.9l-2.8,13.9h0.6v9.4h-1v5.6h-0.3l-1.2-6.1l-1.4,6.9h0.6v13.3h-0.2l-1.4-6.8l-1.4,7h0.6v5.8l-7-6.4
		l-3.4,3.1h-5.5v-2.6h0.4l-1.4-7l-1.3,6.7v-13.1h0.6l-1.4-6.9l-1.2,6.1h-0.3v-5.6h-1v-9.4h0.6l-2.8-13.9l-2.8,13.9h0.6v9.4h-1v5.6
		h-0.3l-1.2-6.1l-1.4,6.9h0.6v13.3h-0.2l-1.4-6.8l-1.4,7h0.6v9h-13.9v-109h-8.6V206h-6.7v2.2h-12.4v-16.9h-0.9v16.9h-6.9v-3.8h-12.4
		v3.8h-6.7v114.4h-3.7v-51.8h-21.8v61.3h-4.2V303h-10V65h-7.5V53.7h-66.6V65h-7.5v250.5H823v24.4h-16.2V291h-10.7v-87.2h-5v-2.7
		h-36.2v2.7h-5v118.4h-9.2v17.7h-5.1l-6.5-7.8l-11.6-90.6v-99l-11.7-8.6L699.8,54l-5.9,79.8l-11.7,8.6v99l-11.6,90.6l-6.5,7.8h-2.4
		V233.3h-2.2v-5.2h-5.6v-7.8h-32.1v7.8h-5.6v5.2h-2.2v86.8h-6.1v11.7h-3.9v-18.1h-3.2v-6H591v6H579v26.2h-3.2v-12.3h-2.1V205.3H572
		v-20.5h-14.7v20.5h-1.6v127.9h-2.3v6.7h-2.5v-23.7h-9.5V183.9h-82.3v105.3h-8.8v33.2h-1.5v-8.1h-8.8v25.5h-1.5v-35.8h-11.4v-19.8
		h-11.5v-46.2h-25.6v32.5l-3.2-2.6l-0.4-0.3h-0.4H285.1c-33.5-13.6-63.7-29.5-90.8-47.4c-26.9-17.8-50.7-37.7-71.6-59.5V160v-2.9
		h-4.4v2.9H96.9v-2.9h-4.4v3.7c-20.8,21.9-44.7,41.7-71.6,59.5c-6.8,4.5-13.8,8.8-21,13.1v2.9c7.7-4.5,15.1-9.1,22.4-13.9
		c26.3-17.4,49.7-36.8,70.2-58v21.7c-20.8,19.9-44.6,37.5-71.5,52.7C14.2,242.7,7.2,246.4,0,250v2.7c7.6-3.8,15.1-7.7,22.3-11.7
		c26.3-14.9,49.7-32.1,70.3-51.5v78.3H0v2.5h6.8v9.2H0v2.5h92.6v34h-9.1v10.3H68.8v-9.3H57.1v9.3H30v-24.2H3.7v37.9H0V408.3L0,408.3
		z M359.5,304.5h8.6v-22.6h-15.2v18.6h6.7V304.5L359.5,304.5z M343.1,300.5v-18.6h-21.3v58h9.2v-39.4H343.1L343.1,300.5z
		 M390.1,279.4v-5.6l-4.4-3.6h-0.2v9.2H390.1L390.1,279.4z M290.7,330.5h1v-48.6H122.7v34h6.2v-23.4h19.8v41.7h5.1v-22h17.6V299
		h21.2v35.1h11v5.7h10.3v-42.3H249v27.1h19v-31.5h22.7V330.5L290.7,330.5z M297.3,330.5h12.4v7.8l7.1-7.1l-10.1-10.1l0,0l0,0
		L297.3,330.5L297.3,330.5z M96.9,315.9h5.5l-5.5-5.5V315.9L96.9,315.9z M105.9,315.9h3.5l8.4-8.4l-10.1-10.1h0l0,0l-10.1,10.1
		L105.9,315.9L105.9,315.9z M112.9,315.9h5.5v-5.5L112.9,315.9L112.9,315.9z M317.4,339.9h-5.8l5.8-5.8V339.9L317.4,339.9z
		 M8.7,279.4h8v-9.2h-8V279.4L8.7,279.4z M18.6,279.4h8v-9.2h-8V279.4L18.6,279.4z M28.6,279.4h8v-9.2h-8V279.4L28.6,279.4z
		 M38.5,279.4h8v-9.2h-8V279.4L38.5,279.4z M48.4,279.4h8v-9.2h-8V279.4L48.4,279.4z M58.3,279.4h8v-9.2h-8V279.4L58.3,279.4z
		 M68.2,279.4h8v-9.2h-8V279.4L68.2,279.4z M78.1,279.4h8v-9.2h-8V279.4L78.1,279.4z M88,279.4h4.5v-9.2H88V279.4L88,279.4z
		 M127.7,270.3v9.2h8v-9.2H127.7L127.7,270.3z M125.8,279.4v-9.2h-3.1v9.2H125.8L125.8,279.4z M137.6,270.3v9.2h8v-9.2H137.6
		L137.6,270.3z M147.5,270.3v9.2h8v-9.2H147.5L147.5,270.3z M157.4,270.3v9.2h8v-9.2H157.4L157.4,270.3z M167.4,270.3v9.2h8v-9.2
		H167.4L167.4,270.3z M177.3,270.3v9.2h8v-9.2H177.3L177.3,270.3z M187.2,270.3v9.2h8v-9.2H187.2L187.2,270.3z M197.1,270.3v9.2h8
		v-9.2H197.1L197.1,270.3z M207,270.3v9.2h8v-9.2H207L207,270.3z M216.9,270.3v9.2h8v-9.2H216.9L216.9,270.3z M226.8,270.3v9.2h8
		v-9.2H226.8L226.8,270.3z M236.8,270.3v9.2h8v-9.2H236.8L236.8,270.3z M246.7,270.3v9.2h8v-9.2H246.7L246.7,270.3z M256.6,270.3
		v9.2h8v-9.2H256.6L256.6,270.3z M266.5,270.3v9.2h8v-9.2H266.5L266.5,270.3z M276.4,270.3v9.2h8v-9.2H276.4L276.4,270.3z
		 M286.3,270.3v9.2h8v-9.2H286.3L286.3,270.3z M296.2,270.3v9.2h8v-9.2H296.2L296.2,270.3z M306.2,270.3v9.2h8v-9.2H306.2
		L306.2,270.3z M316.1,270.3v9.2h8v-9.2H316.1L316.1,270.3z M326,270.3v9.2h8v-9.2H326L326,270.3z M335.9,270.3v9.2h8v-9.2H335.9
		L335.9,270.3z M345.8,270.3v9.2h8v-9.2H345.8L345.8,270.3z M355.7,270.3v9.2h8v-9.2H355.7L355.7,270.3z M365.6,270.3v9.2h8v-9.2
		H365.6L365.6,270.3z M375.6,270.3v9.2h8v-9.2H375.6L375.6,270.3z M296,328.3l9-9l-9-9V328.3L296,328.3z M296,304.6l9-9l-9-8.9
		V304.6L296,304.6z M317.4,286.7l-9,8.9l9,9V286.7L317.4,286.7z M317.4,310.4l-9,9l9,9V310.4L317.4,310.4z M315,281.9h-16.5
		l-1.9,1.9l10.1,10.1l0,0l0,0l10.1-10.1L315,281.9L315,281.9z M306.7,297.4L306.7,297.4L306.7,297.4l-10.1,10.1l10.1,10.1l0,0l0,0
		l10.1-10.1L306.7,297.4L306.7,297.4z M122.7,164.4v21.7c20.8,19.9,44.6,37.5,71.5,52.7c19.1,10.8,39.8,20.5,62.2,29h22.2
		c-31.5-13.2-60-28.3-85.7-45.3C166.6,205.1,143.3,185.7,122.7,164.4L122.7,164.4z M122.7,189.5v78.3h126.8
		c-20.2-7.9-39-16.9-56.5-26.8C166.7,226.1,143.3,208.9,122.7,189.5L122.7,189.5z M98.2,164.4l-0.7,0.7l10.1,10.1l0,0h0l10.1-10.1
		l-0.7-0.7H98.2L98.2,164.4z M118.4,168l-9,9l9,9V168L118.4,168z M107.6,178.7L107.6,178.7L107.6,178.7l-10.1,10.1l10.1,10.1l0,0h0
		l10.1-10.1L107.6,178.7L107.6,178.7z M105.9,177l-9-9V186L105.9,177L105.9,177z M96.9,267.8h4.9l-4.9-4.9V267.8L96.9,267.8z
		 M105.3,267.8h4.7l7.8-7.7l-10.1-10.1h0l0,0L97.5,260L105.3,267.8L105.3,267.8z M113.5,267.8h4.9v-4.9L113.5,267.8L113.5,267.8z
		 M115.9,281.9H99.4l-1.9,1.9l10.1,10.1l0,0h0l10.1-10.1L115.9,281.9L115.9,281.9z M96.9,279.4h1.5l7.5-7.5l-1.6-1.6h-7.3V279.4
		L96.9,279.4z M101.9,279.4h11.5l-5.8-5.8h0l0,0L101.9,279.4L101.9,279.4z M116.9,279.4h1.5v-9.2H111l-1.6,1.6L116.9,279.4
		L116.9,279.4z M118.4,304.6v-17.9l-9,8.9L118.4,304.6L118.4,304.6z M105.9,295.6l-9-8.9v17.9L105.9,295.6L105.9,295.6z
		 M118.4,257.2v-17.9l-9,8.9L118.4,257.2L118.4,257.2z M105.9,248.2l-9-8.9v17.9L105.9,248.2L105.9,248.2z M107.6,246.4L107.6,246.4
		L107.6,246.4l10.1-10.1l-10.1-10.1h0l0,0l-10.1,10.1L107.6,246.4L107.6,246.4z M118.4,233.4v-17.9l-9,9L118.4,233.4L118.4,233.4z
		 M105.9,224.4l-9-9v18L105.9,224.4L105.9,224.4z M107.6,222.7L107.6,222.7L107.6,222.7l10.1-10.1l-10.1-10.1h0l0,0l-10.1,10.1
		L107.6,222.7L107.6,222.7z M118.4,209.7v-17.9l-9,9L118.4,209.7L118.4,209.7z M105.9,200.7l-9-9v17.9L105.9,200.7L105.9,200.7z
		 M562.4,186.7h2.2v5.3h-2.2V186.7L562.4,186.7z M562.4,194.3h2.2v8.6h-2.2V194.3L562.4,194.3z M567.8,186.7h2.2v5.3h-2.2V186.7
		L567.8,186.7z M567.8,194.3h2.2v8.6h-2.2V194.3L567.8,194.3z"/>
	<path class="st3" d="M1214.9,192h4v-6.4h5.2V163c-2.7,1.2-5.8-0.4-8,3.6v-4.1c1.8-3.3,5.3-1.3,8-3.5v-1.2h0.8v27.7h7.9v6.4h24.7
		v-9.2h16v124.5l8.9,16.1h-74.2l6.8-16.1V192L1214.9,192z"/>
	<polygon class="st3" points="1093.1,320.9 1096.5,320.9 1096.5,243.6 1096.5,217.7 1125,217.7 1125,243.6 1146.3,243.6 
		1146.3,287.8 1171,287.8 1171,336.9 1093.1,336.9 1093.1,320.9 	"/>
</g>
<g class="st4">
	<polygon class="st5" points="9.7,253.6 46.9,253.6 46.9,310.8 69.8,310.8 69.8,291.4 77,291.4 77,298.4 102.7,298.4 102.7,257 
		140.8,257 140.8,335.9 146.1,335.9 146.1,307 160.4,307 160.4,240.3 185.6,240.3 185.6,313.2 202.3,313.2 202.3,268.4 228.5,268.4 
		228.5,313.2 228.5,330.8 228.5,335.9 239.5,335.9 239.5,286.5 263.3,286.5 263.3,308 278.1,308 278.1,246 312,246 312,314.2 
		341.5,314.2 341.5,238.8 375.8,238.8 375.8,303.2 397.8,303.2 397.8,317.3 375.8,317.3 375.8,335.9 423.5,335.9 423.5,179.7 
		430.7,179.7 430.7,178.3 439.7,178.3 439.7,173.1 440.7,173.1 440.7,178.3 460.7,178.3 460.7,179.7 464,179.7 464,335.9 515,335.9 
		515,273.1 546.9,273.1 546.9,312.1 576.9,312.1 576.9,335.9 583.3,335.9 583.3,283.6 596,283.6 596,193.7 617.7,193.7 617.7,188.8 
		629.8,188.8 629.8,174.5 632.8,174.5 632.8,154.3 634.9,154.3 634.9,174.5 634.9,188.8 634.9,193.7 640.9,193.7 640.9,188.8 
		640.9,174.5 640.9,154.3 643.1,154.3 643.1,174.5 646.1,174.5 646.1,188.8 658.1,188.8 658.1,193.7 674.7,193.7 674.7,335.9 
		710.1,335.9 710.1,291.9 732.3,291.9 732.3,311.4 758.9,311.4 758.9,335.9 811.4,335.9 811.4,251.5 809.8,251.5 809.8,243.9 
		813.7,243.9 813.7,241.6 818.6,241.6 818.6,238.1 831.5,238.1 831.5,235.8 860.9,235.8 860.9,241 859.8,241 859.8,243.9 
		861.4,243.9 861.4,251.5 859.5,251.5 859.5,335.9 927.5,335.9 927.5,238.2 956.7,238.2 956.7,335.9 969.1,335.9 969.1,290.4 
		987.3,290.4 987.3,335.9 1027.1,335.9 1027.1,285.7 1040.4,285.7 1040.4,335.9 1048.6,335.9 1157.7,335.9 1165.9,335.9 
		1165.9,300.7 1175.9,300.7 1175.9,247.7 1194.5,247.7 1194.5,335.9 1200.4,335.9 1200.4,262.7 1237.8,262.7 1237.8,335.9 
		1250.5,335.9 1250.5,300.7 1257.6,300.7 1257.6,261.5 1282.9,261.5 1282.9,300.8 1321.4,300.8 1321.4,258.8 1341.5,258.8 
		1341.5,300.8 1344.4,300.8 1344.4,319.1 1367.2,319.1 1367.2,335.9 1371.5,335.9 1371.5,305 1386.9,305 1386.9,316.4 1396.5,316.4 
		1396.5,335.9 1400,335.9 1400,351.9 0,351.9 0,335.9 9.7,335.9 9.7,253.6 	"/>
	<path class="st5" d="M0,410.3h1400v-68.4h-6v-17.3h-3.3v-2.3h-3.9v2.3h-5.3v-5.9h-5.9V316h-8.6v-4.6h-6.9v4.6h-2.6v2.6h-2v5.9h-6.3
		v17.3h-3v-8.7h-8.6v-6.9h-12.5v6.9h-14.2v-9.5h-24.4v9.5h-17.5v-12.5h-12.5v-9.9h-24.4v-27.4h-34v37.2h-4.9v14.2h-11.5v-17.2h-35.6
		v15.2h-9.2v-42.5h-6.9v-2H1119v2h-3.3v51.6h-7.9v-12h-14.3v-2.4h0v-17.3h0.4l-1.4-7l-1.3,6.7v-13.1h0.6l-1.4-6.9l-1.2,6.1h-0.3
		v-5.6h-1v-9.4h0.6l-2.8-13.9l-2.8,13.9h0.6v9.4h-1v5.6h-0.3l-1.2-6.1l-1.4,6.9h0.6v13.3h-0.2l-1.4-6.8l-1.4,7h0.6v5.8l-7-6.4
		l-3.4,3.1h-5.5v-2.6h0.4l-1.4-7l-1.3,6.7v-13.1h0.6l-1.4-6.9l-1.2,6.1h-0.3v-5.6h-1v-9.4h0.6l-2.8-13.9l-2.8,13.9h0.6v9.4h-1v5.6
		h-0.3l-1.2-6.1l-1.4,6.9h0.6v13.3h-0.2l-1.4-6.8l-1.4,7h0.6v9h-13.9v-109h-8.6V208h-6.7v2.2h-12.4v-16.9h-0.9v16.9h-6.9v-3.8h-12.4
		v3.8h-6.7v114.4h-3.7v-51.8h-21.8v61.3h-4.2V305h-10V67h-7.5V55.7h-66.6V67h-7.5v250.5H823v24.4h-16.2V293h-10.7v-87.2h-5v-2.7
		h-36.2v2.7h-5v118.4h-9.2v17.7h-5.1l-6.5-7.8l-11.6-90.6v-99l-11.7-8.6L699.8,56l-5.9,79.8l-11.7,8.6v99l-11.6,90.6l-6.5,7.8h-2.4
		V235.3h-2.2v-5.2h-5.6v-7.8h-32.1v7.8h-5.6v5.2h-2.2v86.8h-6.1v11.7h-3.9v-18.1h-3.2v-6H591v6H579v26.2h-3.2v-12.3h-2.1V207.3H572
		v-20.5h-14.7v20.5h-1.6v127.9h-2.3v6.7h-2.5v-23.7h-9.5V185.9h-82.3v105.3h-8.8v33.2h-1.5v-8.1h-8.8v25.5h-1.5v-35.8h-11.4v-19.8
		h-11.5v-46.2h-25.6v32.5l-3.2-2.6l-0.4-0.3h-0.4H285.1c-33.5-13.6-63.7-29.5-90.8-47.4c-26.9-17.8-50.7-37.7-71.6-59.5V162v-2.9
		h-4.4v2.9H96.9v-2.9h-4.4v3.7c-20.8,21.9-44.7,41.7-71.6,59.5c-6.8,4.5-13.8,8.8-21,13.1v2.9c7.7-4.5,15.1-9.1,22.4-13.9
		c26.3-17.4,49.7-36.8,70.2-58v21.7c-20.8,19.9-44.6,37.5-71.5,52.7C14.2,244.7,7.2,248.4,0,252v2.7c7.6-3.8,15.1-7.7,22.3-11.7
		c26.3-14.9,49.7-32.1,70.3-51.5v78.3H0v2.5h6.8v9.2H0v2.5h92.6v34h-9.1v10.3H68.8v-9.3H57.1v9.3H30v-24.2H3.7v37.9H0V410.3L0,410.3
		z M359.5,306.5h8.6v-22.6h-15.2v18.6h6.7V306.5L359.5,306.5z M343.1,302.5v-18.6h-21.3v58h9.2v-39.4H343.1L343.1,302.5z
		 M390.1,281.4v-5.6l-4.4-3.6h-0.2v9.2H390.1L390.1,281.4z M290.7,332.5h1v-48.6H122.7v34h6.2v-23.4h19.8v41.7h5.1v-22h17.6V301
		h21.2v35.1h11v5.7h10.3v-42.3H249v27.1h19v-31.5h22.7V332.5L290.7,332.5z M297.3,332.5h12.4v7.8l7.1-7.1l-10.1-10.1l0,0l0,0
		L297.3,332.5L297.3,332.5z M96.9,317.9h5.5l-5.5-5.5V317.9L96.9,317.9z M105.9,317.9h3.5l8.4-8.4l-10.1-10.1h0l0,0l-10.1,10.1
		L105.9,317.9L105.9,317.9z M112.9,317.9h5.5v-5.5L112.9,317.9L112.9,317.9z M317.4,341.9h-5.8l5.8-5.8V341.9L317.4,341.9z
		 M8.7,281.4h8v-9.2h-8V281.4L8.7,281.4z M18.6,281.4h8v-9.2h-8V281.4L18.6,281.4z M28.6,281.4h8v-9.2h-8V281.4L28.6,281.4z
		 M38.5,281.4h8v-9.2h-8V281.4L38.5,281.4z M48.4,281.4h8v-9.2h-8V281.4L48.4,281.4z M58.3,281.4h8v-9.2h-8V281.4L58.3,281.4z
		 M68.2,281.4h8v-9.2h-8V281.4L68.2,281.4z M78.1,281.4h8v-9.2h-8V281.4L78.1,281.4z M88,281.4h4.5v-9.2H88V281.4L88,281.4z
		 M127.7,272.3v9.2h8v-9.2H127.7L127.7,272.3z M125.8,281.4v-9.2h-3.1v9.2H125.8L125.8,281.4z M137.6,272.3v9.2h8v-9.2H137.6
		L137.6,272.3z M147.5,272.3v9.2h8v-9.2H147.5L147.5,272.3z M157.4,272.3v9.2h8v-9.2H157.4L157.4,272.3z M167.4,272.3v9.2h8v-9.2
		H167.4L167.4,272.3z M177.3,272.3v9.2h8v-9.2H177.3L177.3,272.3z M187.2,272.3v9.2h8v-9.2H187.2L187.2,272.3z M197.1,272.3v9.2h8
		v-9.2H197.1L197.1,272.3z M207,272.3v9.2h8v-9.2H207L207,272.3z M216.9,272.3v9.2h8v-9.2H216.9L216.9,272.3z M226.8,272.3v9.2h8
		v-9.2H226.8L226.8,272.3z M236.8,272.3v9.2h8v-9.2H236.8L236.8,272.3z M246.7,272.3v9.2h8v-9.2H246.7L246.7,272.3z M256.6,272.3
		v9.2h8v-9.2H256.6L256.6,272.3z M266.5,272.3v9.2h8v-9.2H266.5L266.5,272.3z M276.4,272.3v9.2h8v-9.2H276.4L276.4,272.3z
		 M286.3,272.3v9.2h8v-9.2H286.3L286.3,272.3z M296.2,272.3v9.2h8v-9.2H296.2L296.2,272.3z M306.2,272.3v9.2h8v-9.2H306.2
		L306.2,272.3z M316.1,272.3v9.2h8v-9.2H316.1L316.1,272.3z M326,272.3v9.2h8v-9.2H326L326,272.3z M335.9,272.3v9.2h8v-9.2H335.9
		L335.9,272.3z M345.8,272.3v9.2h8v-9.2H345.8L345.8,272.3z M355.7,272.3v9.2h8v-9.2H355.7L355.7,272.3z M365.6,272.3v9.2h8v-9.2
		H365.6L365.6,272.3z M375.6,272.3v9.2h8v-9.2H375.6L375.6,272.3z M296,330.3l9-9l-9-9V330.3L296,330.3z M296,306.6l9-9l-9-8.9
		V306.6L296,306.6z M317.4,288.7l-9,8.9l9,9V288.7L317.4,288.7z M317.4,312.4l-9,9l9,9V312.4L317.4,312.4z M315,283.9h-16.5
		l-1.9,1.9l10.1,10.1l0,0l0,0l10.1-10.1L315,283.9L315,283.9z M306.7,299.4L306.7,299.4L306.7,299.4l-10.1,10.1l10.1,10.1l0,0l0,0
		l10.1-10.1L306.7,299.4L306.7,299.4z M122.7,166.4v21.7c20.8,19.9,44.6,37.5,71.5,52.7c19.1,10.8,39.8,20.5,62.2,29h22.2
		c-31.5-13.2-60-28.3-85.7-45.3C166.6,207.1,143.3,187.7,122.7,166.4L122.7,166.4z M122.7,191.5v78.3h126.8
		c-20.2-7.9-39-16.9-56.5-26.8C166.7,228.1,143.3,210.9,122.7,191.5L122.7,191.5z M98.2,166.4l-0.7,0.7l10.1,10.1l0,0h0l10.1-10.1
		l-0.7-0.7H98.2L98.2,166.4z M118.4,170l-9,9l9,9V170L118.4,170z M107.6,180.7L107.6,180.7L107.6,180.7l-10.1,10.1l10.1,10.1l0,0h0
		l10.1-10.1L107.6,180.7L107.6,180.7z M105.9,179l-9-9V188L105.9,179L105.9,179z M96.9,269.8h4.9l-4.9-4.9V269.8L96.9,269.8z
		 M105.3,269.8h4.7l7.8-7.7l-10.1-10.1h0l0,0L97.5,262L105.3,269.8L105.3,269.8z M113.5,269.8h4.9v-4.9L113.5,269.8L113.5,269.8z
		 M115.9,283.9H99.4l-1.9,1.9l10.1,10.1l0,0h0l10.1-10.1L115.9,283.9L115.9,283.9z M96.9,281.4h1.5l7.5-7.5l-1.6-1.6h-7.3V281.4
		L96.9,281.4z M101.9,281.4h11.5l-5.8-5.8h0l0,0L101.9,281.4L101.9,281.4z M116.9,281.4h1.5v-9.2H111l-1.6,1.6L116.9,281.4
		L116.9,281.4z M118.4,306.6v-17.9l-9,8.9L118.4,306.6L118.4,306.6z M105.9,297.6l-9-8.9v17.9L105.9,297.6L105.9,297.6z
		 M118.4,259.2v-17.9l-9,8.9L118.4,259.2L118.4,259.2z M105.9,250.2l-9-8.9v17.9L105.9,250.2L105.9,250.2z M107.6,248.4L107.6,248.4
		L107.6,248.4l10.1-10.1l-10.1-10.1h0l0,0l-10.1,10.1L107.6,248.4L107.6,248.4z M118.4,235.4v-17.9l-9,9L118.4,235.4L118.4,235.4z
		 M105.9,226.4l-9-9v18L105.9,226.4L105.9,226.4z M107.6,224.7L107.6,224.7L107.6,224.7l10.1-10.1l-10.1-10.1h0l0,0l-10.1,10.1
		L107.6,224.7L107.6,224.7z M118.4,211.7v-17.9l-9,9L118.4,211.7L118.4,211.7z M105.9,202.7l-9-9v17.9L105.9,202.7L105.9,202.7z
		 M562.4,188.7h2.2v5.3h-2.2V188.7L562.4,188.7z M562.4,196.3h2.2v8.6h-2.2V196.3L562.4,196.3z M567.8,188.7h2.2v5.3h-2.2V188.7
		L567.8,188.7z M567.8,196.3h2.2v8.6h-2.2V196.3L567.8,196.3z"/>
	<path class="st5" d="M1214.9,194h4v-6.4h5.2V165c-2.7,1.2-5.8-0.4-8,3.6v-4.1c1.8-3.3,5.3-1.3,8-3.5v-1.2h0.8v27.7h7.9v6.4h24.7
		v-9.2h16v124.5l8.9,16.1h-74.2l6.8-16.1V194L1214.9,194z"/>
	<polygon class="st5" points="1093.1,322.9 1096.5,322.9 1096.5,245.6 1096.5,219.7 1125,219.7 1125,245.6 1146.3,245.6 
		1146.3,289.8 1171,289.8 1171,338.9 1093.1,338.9 1093.1,322.9 	"/>
</g>
</svg>
